<?xml version="1.0" encoding="utf-8"?>
<!-- Generator: Adobe Illustrator 18.0.0, SVG Export Plug-In . SVG Version: 6.00 Build 0)  -->
<!DOCTYPE svg PUBLIC "-//W3C//DTD SVG 1.1//EN" "http://www.w3.org/Graphics/SVG/1.1/DTD/svg11.dtd">
<svg version="1.1" id="Layer_1" xmlns="http://www.w3.org/2000/svg" xmlns:xlink="http://www.w3.org/1999/xlink" x="0px" y="0px"
	 viewBox="-322 -42.4 216 216" enable-background="new -322 -42.4 216 216" xml:space="preserve">
<g id="Layer_1_1_">
</g>
<g id="Layer_2">
	<path fill="#77C044" stroke="#000000" stroke-miterlimit="10" d="M128.8,206.8c-0.9,2.9-41.9,0-41.9,0v-20.7c0,0-8.4,1.7-17.9,0
		c-9.5-1.7-22.9-25.1-24-34.1c-1.1-8.9-1.1-14,2.8-15.1c3.9-1.1,11.7,6.1,12.8,9.5c1.1,3.4,6.7,17.9,7.3,21.2
		c0.6,3.3,17.8,7.6,18.7,4.4c0.9-3.3,0-35.2,0-35.2S62,122.7,57.8,116.4c-5-7.5-1.8-49.1,0-59.8c1.8-10.6,6.8-18.4,9.6-18.4
		c2.8,0,17.5,2.5,13.4,20.1c0,0-1.1,16.8-1.7,27.4c-0.6,10.6,0.6,24,5,22.9c4.5-1.1,1.6-52.5,2.5-57.5c0.9-5-1.4-39.7,18.8-41.3
		c20.1-1.7,21.8,16.2,23.5,21.8c1.7,5.6,5,10.1,6.1,35.2c1.1,25.1-2.8,41.8-2.8,41.8s7.3,2.9,8.9-14.4c1.7-17.3-4.5-60.3,3.4-59.8
		c7.8,0.6,12.8-2.8,15.1,6.7c2.2,9.5,5.6,27.9,5,47.5c-0.6,19.5-0.6,34.6-10.1,41.3c-9.5,6.7-25.7,8.9-25.7,6.7
		c0-2.2-0.6,21.2-0.6,21.2s22.9,2.8,25.7-6.1c2.8-8.9,7.8-27.7,14-26.8c0,0,7.8-6.1,12.3,7.3c4.5,13.4-4.5,27.4-6.7,30.7
		c-2.2,3.4-13.4,11.2-23.5,11.2c0,0-14.5,7.3-22.3,3.3C122.7,178.9,130.5,201.2,128.8,206.8z"/>
	<line fill="none" stroke="#000000" stroke-miterlimit="10" x1="105.9" y1="29.8" x2="106.5" y2="34.3"/>
	<line fill="none" stroke="#000000" stroke-miterlimit="10" x1="118.8" y1="51.6" x2="119.3" y2="59.4"/>
	<line fill="none" stroke="#000000" stroke-miterlimit="10" x1="96.4" y1="70" x2="97.6" y2="76.1"/>
	<line fill="none" stroke="#000000" stroke-miterlimit="10" x1="112.9" y1="76.1" x2="112.9" y2="79.5"/>
	<line fill="none" stroke="#000000" stroke-miterlimit="10" x1="128.8" y1="90.1" x2="127.7" y2="94"/>
	<line fill="none" stroke="#000000" stroke-miterlimit="10" x1="99.8" y1="108.8" x2="97.6" y2="108.8"/>
	<line fill="none" stroke="#000000" stroke-miterlimit="10" x1="127.7" y1="115.8" x2="127.7" y2="118.6"/>
	<line fill="none" stroke="#000000" stroke-miterlimit="10" x1="127.7" y1="70" x2="127.7" y2="73.1"/>
	<line fill="none" stroke="#000000" stroke-miterlimit="10" x1="123.8" y1="17.5" x2="127.7" y2="15.3"/>
	<line fill="none" stroke="#000000" stroke-miterlimit="10" x1="56" y1="73.1" x2="52.3" y2="73.1"/>
	<line fill="none" stroke="#000000" stroke-miterlimit="10" x1="57.8" y1="108.8" x2="52.3" y2="108.8"/>
	<line fill="none" stroke="#000000" stroke-miterlimit="10" x1="75.1" y1="129.9" x2="69.1" y2="134.2"/>
	<line fill="none" stroke="#000000" stroke-miterlimit="10" x1="86.9" y1="147" x2="81.4" y2="148.2"/>
	<line fill="none" stroke="#000000" stroke-miterlimit="10" x1="106.5" y1="126.4" x2="105.9" y2="134.2"/>
	<line fill="none" stroke="#000000" stroke-miterlimit="10" x1="84.1" y1="117.2" x2="86.9" y2="118.6"/>
	<line fill="none" stroke="#000000" stroke-miterlimit="10" x1="152.9" y1="104.6" x2="156.8" y2="108.8"/>
	<line fill="none" stroke="#000000" stroke-miterlimit="10" x1="149.5" y1="79.5" x2="154.8" y2="73.1"/>
	<line fill="none" stroke="#000000" stroke-miterlimit="10" x1="162.3" y1="55.5" x2="166.8" y2="59.4"/>
	<line fill="none" stroke="#000000" stroke-miterlimit="10" x1="164.2" y1="100.7" x2="166.8" y2="104.6"/>
	<line fill="none" stroke="#000000" stroke-miterlimit="10" x1="145.8" y1="134.2" x2="145" y2="140.4"/>
	<line fill="none" stroke="#000000" stroke-miterlimit="10" x1="144.5" y1="34.3" x2="141.1" y2="29.8"/>
	<line fill="none" stroke="#000000" stroke-miterlimit="10" x1="123.8" y1="166.6" x2="119.3" y2="173.3"/>
	<line fill="none" stroke="#000000" stroke-miterlimit="10" x1="118.8" y1="153.2" x2="112.9" y2="154.3"/>
	<line fill="none" stroke="#000000" stroke-miterlimit="10" x1="86.6" y1="172.1" x2="93.1" y2="173.3"/>
	<line fill="none" stroke="#000000" stroke-miterlimit="10" x1="57.8" y1="177.2" x2="57.8" y2="177.2"/>
	<line fill="none" stroke="#000000" stroke-miterlimit="10" x1="54.2" y1="147" x2="54.2" y2="153.2"/>
	<line fill="none" stroke="#000000" stroke-miterlimit="10" x1="57.8" y1="177.2" x2="52.3" y2="177.2"/>
	<line fill="none" stroke="#000000" stroke-miterlimit="10" x1="78" y1="186.9" x2="77.5" y2="191.7"/>
	<line fill="none" stroke="#000000" stroke-miterlimit="10" x1="69.1" y1="177.2" x2="75.1" y2="177.2"/>
	<line fill="none" stroke="#000000" stroke-miterlimit="10" x1="99.8" y1="186.9" x2="105.9" y2="191.7"/>
	<line fill="none" stroke="#000000" stroke-miterlimit="10" x1="121.6" y1="191.7" x2="121.6" y2="196.8"/>
	<line fill="none" stroke="#000000" stroke-miterlimit="10" x1="112.9" y1="202.4" x2="112.9" y2="208.1"/>
	<line fill="none" stroke="#000000" stroke-miterlimit="10" x1="128.3" y1="197.7" x2="131.6" y2="196.8"/>
	<line fill="none" stroke="#000000" stroke-miterlimit="10" x1="141.1" y1="177.2" x2="141.1" y2="180.6"/>
	<line fill="none" stroke="#000000" stroke-miterlimit="10" x1="138.3" y1="166.6" x2="141.1" y2="164.4"/>
	<line fill="none" stroke="#000000" stroke-miterlimit="10" x1="154.8" y1="159.9" x2="156.8" y2="164.4"/>
	<line fill="none" stroke="#000000" stroke-miterlimit="10" x1="162.3" y1="148.2" x2="166.8" y2="147"/>
	<line fill="none" stroke="#000000" stroke-miterlimit="10" x1="166.8" y1="157.1" x2="166.8" y2="162.1"/>
	<line fill="none" stroke="#000000" stroke-miterlimit="10" x1="172.4" y1="134.2" x2="172.4" y2="137.3"/>
	<line fill="none" stroke="#000000" stroke-miterlimit="10" x1="180.3" y1="148.2" x2="181.5" y2="150.1"/>
	<line fill="none" stroke="#000000" stroke-miterlimit="10" x1="180.2" y1="132" x2="184.7" y2="126.4"/>
	<line fill="none" stroke="#000000" stroke-miterlimit="10" x1="165.5" y1="170" x2="166.8" y2="173.3"/>
	<line fill="none" stroke="#000000" stroke-miterlimit="10" x1="175.3" y1="159.9" x2="180.2" y2="164.4"/>
	<line fill="none" stroke="#000000" stroke-miterlimit="10" x1="72.1" y1="90.1" x2="69.1" y2="92.1"/>
	<line fill="none" stroke="#000000" stroke-miterlimit="10" x1="64.1" y1="55.5" x2="65.7" y2="59.4"/>
	<line fill="none" stroke="#000000" stroke-miterlimit="10" x1="102.9" y1="148.2" x2="99.8" y2="150.1"/>
	<line fill="none" stroke="#000000" stroke-miterlimit="10" x1="96.4" y1="165.5" x2="101.3" y2="171.6"/>
	<line fill="none" stroke="#000000" stroke-miterlimit="10" x1="87" y1="159.9" x2="84.1" y2="162.1"/>
	<line fill="none" stroke="#000000" stroke-miterlimit="10" x1="64.5" y1="157.1" x2="65.7" y2="154.3"/>
	<line fill="none" stroke="#000000" stroke-miterlimit="10" x1="61.4" y1="120.1" x2="57.8" y2="121.9"/>
	<line fill="none" stroke="#000000" stroke-miterlimit="10" x1="69.1" y1="108.8" x2="69.1" y2="115.8"/>
	<line fill="none" stroke="#000000" stroke-miterlimit="10" x1="138.3" y1="118.6" x2="144.5" y2="121.9"/>
	<line fill="none" stroke="#000000" stroke-miterlimit="10" x1="149.5" y1="53.2" x2="152.2" y2="51.6"/>
	<line fill="none" stroke="#000000" stroke-miterlimit="10" x1="102.9" y1="52.4" x2="102.9" y2="57.4"/>
	<line fill="none" stroke="#000000" stroke-miterlimit="10" x1="149.5" y1="61.1" x2="149.5" y2="66.1"/>
	<line fill="none" stroke="#000000" stroke-miterlimit="10" x1="105.9" y1="85.6" x2="105.9" y2="92.1"/>
	<line fill="none" stroke="#000000" stroke-miterlimit="10" x1="115.9" y1="106.7" x2="112.9" y2="106.7"/>
	<line fill="none" stroke="#000000" stroke-miterlimit="10" x1="109.9" y1="112.3" x2="114.4" y2="118.6"/>
	<line fill="none" stroke="#000000" stroke-miterlimit="10" x1="115.9" y1="132" x2="118.8" y2="134.2"/>
	<line fill="none" stroke="#000000" stroke-miterlimit="10" x1="64.5" y1="85.6" x2="65.7" y2="79.5"/>
	<line fill="none" stroke="#000000" stroke-miterlimit="10" x1="54.2" y1="85.6" x2="49.5" y2="85.6"/>
	<line fill="none" stroke="#000000" stroke-miterlimit="10" x1="78" y1="42.8" x2="78" y2="38.2"/>
	<line fill="none" stroke="#000000" stroke-miterlimit="10" x1="96.4" y1="22" x2="98.7" y2="27.6"/>
	<line fill="none" stroke="#000000" stroke-miterlimit="10" x1="88.7" y1="29.8" x2="84.1" y2="27.6"/>
	<line fill="none" stroke="#000000" stroke-miterlimit="10" x1="64.9" y1="39.6" x2="64.1" y2="38.2"/>
	<line fill="none" stroke="#000000" stroke-miterlimit="10" x1="58.9" y1="51.6" x2="56" y2="51.6"/>
	<line fill="none" stroke="#000000" stroke-miterlimit="10" x1="72.1" y1="63.6" x2="69.1" y2="66.1"/>
	<line fill="none" stroke="#000000" stroke-miterlimit="10" x1="115.9" y1="34.3" x2="121.6" y2="38.2"/>
	<line fill="none" stroke="#000000" stroke-miterlimit="10" x1="159.6" y1="41" x2="162.3" y2="36.2"/>
	<line fill="none" stroke="#000000" stroke-miterlimit="10" x1="61.4" y1="45" x2="59.6" y2="42.8"/>
	<line fill="none" stroke="#000000" stroke-miterlimit="10" x1="109.9" y1="177.2" x2="112.1" y2="183.9"/>
	<line fill="none" stroke="#000000" stroke-miterlimit="10" x1="87" y1="197.7" x2="84.1" y2="205.2"/>
	<line fill="none" stroke="#000000" stroke-miterlimit="10" x1="46.4" y1="157.1" x2="44.4" y2="159.6"/>
	<line fill="none" stroke="#000000" stroke-miterlimit="10" x1="57.8" y1="162.1" x2="57.8" y2="165.5"/>
	<line fill="none" stroke="#000000" stroke-miterlimit="10" x1="47.9" y1="137" x2="46.4" y2="133.1"/>
	<line fill="none" stroke="#000000" stroke-miterlimit="10" x1="141.4" y1="83.2" x2="138.3" y2="85.6"/>
	<line fill="none" stroke="#000000" stroke-miterlimit="10" x1="164.2" y1="82.6" x2="166.8" y2="82.6"/>
	<line fill="none" stroke="#000000" stroke-miterlimit="10" x1="158.6" y1="137.3" x2="156.8" y2="135.1"/>
	<line fill="none" stroke="#000000" stroke-miterlimit="10" x1="142.8" y1="157.1" x2="142.8" y2="153.8"/>
	<line fill="none" stroke="#000000" stroke-miterlimit="10" x1="128.3" y1="147" x2="131.6" y2="147.6"/>
	<line fill="none" stroke="#000000" stroke-miterlimit="10" x1="118.8" y1="143.2" x2="115.9" y2="147"/>
	<line fill="none" stroke="#000000" stroke-miterlimit="10" x1="93.1" y1="130.3" x2="93.1" y2="137.3"/>
	<line fill="none" stroke="#000000" stroke-miterlimit="10" x1="93.1" y1="106.7" x2="93.1" y2="112.3"/>
	<line fill="none" stroke="#000000" stroke-miterlimit="10" x1="145.8" y1="108.8" x2="145.8" y2="112.3"/>
	<line fill="none" stroke="#000000" stroke-miterlimit="10" x1="162.3" y1="118.6" x2="166.8" y2="117.9"/>
	<line fill="none" stroke="#000000" stroke-miterlimit="10" x1="85.6" y1="82.6" x2="84.1" y2="82.6"/>
	<line fill="none" stroke="#000000" stroke-miterlimit="10" x1="109.9" y1="9.6" x2="109.9" y2="5.2"/>
	<line fill="none" stroke="#000000" stroke-miterlimit="10" x1="98.7" y1="11.8" x2="96.4" y2="9.6"/>
	<line fill="none" stroke="#000000" stroke-miterlimit="10" x1="128.8" y1="27.6" x2="131.6" y2="24.8"/>
	<line fill="none" stroke="#000000" stroke-miterlimit="10" x1="131.9" y1="41" x2="135" y2="38.6"/>
	<line fill="none" stroke="#000000" stroke-miterlimit="10" x1="141.1" y1="63.6" x2="138.3" y2="63.6"/>
	<line fill="none" stroke="#000000" stroke-miterlimit="10" x1="154" y1="151.5" x2="150.8" y2="150.1"/>
	<line fill="none" stroke="#000000" stroke-miterlimit="10" x1="76.1" y1="172.1" x2="75.1" y2="166.6"/>
	<line fill="none" stroke="#000000" stroke-miterlimit="10" x1="67" y1="164.4" x2="72.1" y2="161"/>
	<line fill="none" stroke="#000000" stroke-miterlimit="10" x1="60.7" y1="146.5" x2="65.1" y2="143.2"/>
	<line fill="none" stroke="#000000" stroke-miterlimit="10" x1="55.1" y1="139.9" x2="57.5" y2="137"/>
	<line fill="none" stroke="#000000" stroke-miterlimit="10" x1="83.5" y1="135.1" x2="81.4" y2="139.9"/>
	<line fill="none" stroke="#000000" stroke-miterlimit="10" x1="69.1" y1="186.2" x2="64.5" y2="191.7"/>
	<line fill="none" stroke="#000000" stroke-miterlimit="10" x1="96.4" y1="194.3" x2="96.4" y2="201.4"/>
	<line fill="none" stroke="#000000" stroke-miterlimit="10" x1="93.1" y1="88.8" x2="93.1" y2="94"/>
	<line fill="none" stroke="#000000" stroke-miterlimit="10" x1="96.4" y1="42.8" x2="93.1" y2="51.6"/>
	<line fill="none" stroke="#000000" stroke-miterlimit="10" x1="86.6" y1="51" x2="84.8" y2="47.2"/>
	<line fill="none" stroke="#000000" stroke-miterlimit="10" x1="93.1" y1="17.6" x2="88.7" y2="16.4"/>
	<line fill="none" stroke="#000000" stroke-miterlimit="10" x1="86.4" y1="76.1" x2="82.4" y2="73.1"/>
	<line fill="none" stroke="#000000" stroke-miterlimit="10" x1="79.7" y1="100.7" x2="82.4" y2="94"/>
	<line fill="none" stroke="#000000" stroke-miterlimit="10" x1="54.2" y1="97.4" x2="51.9" y2="94"/>
	<line fill="none" stroke="#000000" stroke-miterlimit="10" x1="152.4" y1="94" x2="150.8" y2="95.7"/>
	<line fill="none" stroke="#000000" stroke-miterlimit="10" x1="141.1" y1="100.7" x2="139.7" y2="97.4"/>
	<line fill="none" stroke="#000000" stroke-miterlimit="10" x1="172.4" y1="123.3" x2="175.3" y2="117.9"/>
	<line fill="none" stroke="#000000" stroke-miterlimit="10" x1="151.6" y1="131.5" x2="152.4" y2="135.1"/>
	<line fill="none" stroke="#000000" stroke-miterlimit="10" x1="181.3" y1="137.5" x2="184.7" y2="138.4"/>
	<line fill="none" stroke="#000000" stroke-miterlimit="10" x1="135" y1="158.1" x2="135" y2="153.2"/>
	<line fill="none" stroke="#000000" stroke-miterlimit="10" x1="150.1" y1="173.9" x2="150.8" y2="180.6"/>
	<line fill="none" stroke="#000000" stroke-miterlimit="10" x1="128.3" y1="193" x2="135" y2="190.5"/>
</g>
<g id="Layer_2_1_">
	<path fill="#77C044" stroke="#000000" stroke-miterlimit="10" d="M-193.2,164.7c-0.9,2.9-41.9,0-41.9,0v-20.7c0,0-8.4,1.7-17.9,0
		c-9.5-1.7-22.9-25.1-24-34.1c-1.1-8.9-1.1-14,2.8-15.1c3.9-1.1,11.7,6.1,12.8,9.5c1.1,3.4,6.7,17.9,7.3,21.2
		c0.6,3.3,17.8,7.6,18.7,4.4c0.9-3.3,0-35.2,0-35.2s-24.6-14.2-28.9-20.5c-5-7.5-1.8-49.1,0-59.8c1.8-10.6,6.8-18.4,9.6-18.4
		c2.8,0,17.5,2.5,13.4,20.1c0,0-1.1,16.8-1.7,27.4c-0.6,10.6,0.6,24,5,22.9c4.5-1.1,1.6-52.5,2.5-57.5c0.9-5-1.4-39.7,18.8-41.3
		c20.1-1.7,21.8,16.2,23.5,21.8c1.7,5.6,5,10.1,6.1,35.2c1.1,25.1-2.8,41.8-2.8,41.8s7.3,2.9,8.9-14.4c1.7-17.3-4.5-60.3,3.4-59.8
		c7.8,0.6,12.8-2.8,15.1,6.7c2.2,9.5,5.6,27.9,5,47.5C-158,65.9-158,81-167.5,87.7c-9.5,6.7-25.7,8.9-25.7,6.7
		c0-2.2-0.6,21.2-0.6,21.2s22.9,2.8,25.7-6.1c2.8-8.9,7.8-27.7,14-26.8c0,0,7.8-6.1,12.3,7.3c4.5,13.4-4.5,27.4-6.7,30.7
		c-2.2,3.4-13.4,11.2-23.5,11.2c0,0-14.5,7.3-22.3,3.3C-199.3,136.8-191.5,159.2-193.2,164.7z"/>
	<line fill="none" stroke="#000000" stroke-miterlimit="10" x1="-216.1" y1="-12.3" x2="-215.5" y2="-7.8"/>
	<line fill="none" stroke="#000000" stroke-miterlimit="10" x1="-203.2" y1="9.5" x2="-202.7" y2="17.3"/>
	<line fill="none" stroke="#000000" stroke-miterlimit="10" x1="-225.6" y1="27.9" x2="-224.4" y2="34.1"/>
	<line fill="none" stroke="#000000" stroke-miterlimit="10" x1="-209.1" y1="34.1" x2="-209.1" y2="37.4"/>
	<line fill="none" stroke="#000000" stroke-miterlimit="10" x1="-193.2" y1="48" x2="-194.3" y2="51.9"/>
	<line fill="none" stroke="#000000" stroke-miterlimit="10" x1="-222.2" y1="66.8" x2="-224.4" y2="66.8"/>
	<line fill="none" stroke="#000000" stroke-miterlimit="10" x1="-194.3" y1="73.7" x2="-194.3" y2="76.5"/>
	<line fill="none" stroke="#000000" stroke-miterlimit="10" x1="-194.3" y1="27.9" x2="-194.3" y2="31"/>
	<line fill="none" stroke="#000000" stroke-miterlimit="10" x1="-198.2" y1="-24.6" x2="-194.3" y2="-26.8"/>
	<line fill="none" stroke="#000000" stroke-miterlimit="10" x1="-266" y1="31" x2="-269.7" y2="31"/>
	<line fill="none" stroke="#000000" stroke-miterlimit="10" x1="-264.2" y1="66.8" x2="-269.7" y2="66.8"/>
	<line fill="none" stroke="#000000" stroke-miterlimit="10" x1="-246.9" y1="87.8" x2="-252.9" y2="92.1"/>
	<line fill="none" stroke="#000000" stroke-miterlimit="10" x1="-235.1" y1="105" x2="-240.6" y2="106.1"/>
	<line fill="none" stroke="#000000" stroke-miterlimit="10" x1="-215.5" y1="84.3" x2="-216.1" y2="92.1"/>
	<line fill="none" stroke="#000000" stroke-miterlimit="10" x1="-237.9" y1="75.1" x2="-235.1" y2="76.5"/>
	<line fill="none" stroke="#000000" stroke-miterlimit="10" x1="-169.1" y1="62.5" x2="-165.2" y2="66.8"/>
	<line fill="none" stroke="#000000" stroke-miterlimit="10" x1="-172.5" y1="37.4" x2="-167.2" y2="31"/>
	<line fill="none" stroke="#000000" stroke-miterlimit="10" x1="-159.7" y1="13.4" x2="-155.2" y2="17.3"/>
	<line fill="none" stroke="#000000" stroke-miterlimit="10" x1="-157.8" y1="58.6" x2="-155.2" y2="62.5"/>
	<line fill="none" stroke="#000000" stroke-miterlimit="10" x1="-176.2" y1="92.1" x2="-177" y2="98.3"/>
	<line fill="none" stroke="#000000" stroke-miterlimit="10" x1="-177.5" y1="-7.8" x2="-180.9" y2="-12.3"/>
	<line fill="none" stroke="#000000" stroke-miterlimit="10" x1="-198.2" y1="124.5" x2="-202.7" y2="131.2"/>
	<line fill="none" stroke="#000000" stroke-miterlimit="10" x1="-203.2" y1="111.1" x2="-209.1" y2="112.2"/>
	<line fill="none" stroke="#000000" stroke-miterlimit="10" x1="-235.4" y1="130" x2="-228.9" y2="131.2"/>
	<line fill="none" stroke="#000000" stroke-miterlimit="10" x1="-264.2" y1="135.1" x2="-264.2" y2="135.1"/>
	<line fill="none" stroke="#000000" stroke-miterlimit="10" x1="-267.8" y1="105" x2="-267.8" y2="111.1"/>
	<line fill="none" stroke="#000000" stroke-miterlimit="10" x1="-264.2" y1="135.1" x2="-269.7" y2="135.1"/>
	<line fill="none" stroke="#000000" stroke-miterlimit="10" x1="-244" y1="144.8" x2="-244.5" y2="149.7"/>
	<line fill="none" stroke="#000000" stroke-miterlimit="10" x1="-252.9" y1="135.1" x2="-246.9" y2="135.1"/>
	<line fill="none" stroke="#000000" stroke-miterlimit="10" x1="-222.2" y1="144.8" x2="-216.1" y2="149.7"/>
	<line fill="none" stroke="#000000" stroke-miterlimit="10" x1="-200.4" y1="149.7" x2="-200.4" y2="154.7"/>
	<line fill="none" stroke="#000000" stroke-miterlimit="10" x1="-209.1" y1="160.3" x2="-209.1" y2="166"/>
	<line fill="none" stroke="#000000" stroke-miterlimit="10" x1="-193.7" y1="155.6" x2="-190.4" y2="154.7"/>
	<line fill="none" stroke="#000000" stroke-miterlimit="10" x1="-180.9" y1="135.1" x2="-180.9" y2="138.5"/>
	<line fill="none" stroke="#000000" stroke-miterlimit="10" x1="-183.7" y1="124.5" x2="-180.9" y2="122.3"/>
	<line fill="none" stroke="#000000" stroke-miterlimit="10" x1="-167.2" y1="117.8" x2="-165.2" y2="122.3"/>
	<line fill="none" stroke="#000000" stroke-miterlimit="10" x1="-159.7" y1="106.1" x2="-155.2" y2="105"/>
	<line fill="none" stroke="#000000" stroke-miterlimit="10" x1="-155.2" y1="115" x2="-155.2" y2="120.1"/>
	<line fill="none" stroke="#000000" stroke-miterlimit="10" x1="-149.6" y1="92.1" x2="-149.6" y2="95.2"/>
	<line fill="none" stroke="#000000" stroke-miterlimit="10" x1="-141.7" y1="106.1" x2="-140.5" y2="108"/>
	<line fill="none" stroke="#000000" stroke-miterlimit="10" x1="-141.8" y1="89.9" x2="-137.3" y2="84.3"/>
	<line fill="none" stroke="#000000" stroke-miterlimit="10" x1="-156.5" y1="127.9" x2="-155.2" y2="131.2"/>
	<line fill="none" stroke="#000000" stroke-miterlimit="10" x1="-146.7" y1="117.8" x2="-141.8" y2="122.3"/>
	<line fill="none" stroke="#000000" stroke-miterlimit="10" x1="-249.9" y1="48" x2="-252.9" y2="50"/>
	<line fill="none" stroke="#000000" stroke-miterlimit="10" x1="-257.9" y1="13.4" x2="-256.3" y2="17.3"/>
	<line fill="none" stroke="#000000" stroke-miterlimit="10" x1="-219.1" y1="106.1" x2="-222.2" y2="108"/>
	<line fill="none" stroke="#000000" stroke-miterlimit="10" x1="-225.6" y1="123.4" x2="-220.7" y2="129.6"/>
	<line fill="none" stroke="#000000" stroke-miterlimit="10" x1="-235" y1="117.8" x2="-237.9" y2="120.1"/>
	<line fill="none" stroke="#000000" stroke-miterlimit="10" x1="-257.5" y1="115" x2="-256.3" y2="112.2"/>
	<line fill="none" stroke="#000000" stroke-miterlimit="10" x1="-260.6" y1="78" x2="-264.2" y2="79.9"/>
	<line fill="none" stroke="#000000" stroke-miterlimit="10" x1="-252.9" y1="66.8" x2="-252.9" y2="73.7"/>
	<line fill="none" stroke="#000000" stroke-miterlimit="10" x1="-183.7" y1="76.5" x2="-177.5" y2="79.9"/>
	<line fill="none" stroke="#000000" stroke-miterlimit="10" x1="-172.5" y1="11.2" x2="-169.8" y2="9.5"/>
	<line fill="none" stroke="#000000" stroke-miterlimit="10" x1="-219.1" y1="10.3" x2="-219.1" y2="15.3"/>
	<line fill="none" stroke="#000000" stroke-miterlimit="10" x1="-172.5" y1="19" x2="-172.5" y2="24"/>
	<line fill="none" stroke="#000000" stroke-miterlimit="10" x1="-216.1" y1="43.6" x2="-216.1" y2="50"/>
	<line fill="none" stroke="#000000" stroke-miterlimit="10" x1="-206.1" y1="64.6" x2="-209.1" y2="64.6"/>
	<line fill="none" stroke="#000000" stroke-miterlimit="10" x1="-212.1" y1="70.2" x2="-207.6" y2="76.5"/>
	<line fill="none" stroke="#000000" stroke-miterlimit="10" x1="-206.1" y1="89.9" x2="-203.2" y2="92.1"/>
	<line fill="none" stroke="#000000" stroke-miterlimit="10" x1="-257.5" y1="43.6" x2="-256.3" y2="37.4"/>
	<line fill="none" stroke="#000000" stroke-miterlimit="10" x1="-267.8" y1="43.6" x2="-272.5" y2="43.6"/>
	<line fill="none" stroke="#000000" stroke-miterlimit="10" x1="-244" y1="0.8" x2="-244" y2="-3.9"/>
	<line fill="none" stroke="#000000" stroke-miterlimit="10" x1="-225.6" y1="-20.1" x2="-223.3" y2="-14.5"/>
	<line fill="none" stroke="#000000" stroke-miterlimit="10" x1="-233.3" y1="-12.3" x2="-237.9" y2="-14.5"/>
	<line fill="none" stroke="#000000" stroke-miterlimit="10" x1="-257.1" y1="-2.4" x2="-257.9" y2="-3.9"/>
	<line fill="none" stroke="#000000" stroke-miterlimit="10" x1="-263.1" y1="9.5" x2="-266" y2="9.5"/>
	<line fill="none" stroke="#000000" stroke-miterlimit="10" x1="-249.9" y1="21.5" x2="-252.9" y2="24"/>
	<line fill="none" stroke="#000000" stroke-miterlimit="10" x1="-206.1" y1="-7.8" x2="-200.4" y2="-3.9"/>
	<line fill="none" stroke="#000000" stroke-miterlimit="10" x1="-162.4" y1="-1.1" x2="-159.7" y2="-5.9"/>
	<line fill="none" stroke="#000000" stroke-miterlimit="10" x1="-260.6" y1="2.9" x2="-262.4" y2="0.8"/>
	<line fill="none" stroke="#000000" stroke-miterlimit="10" x1="-212.1" y1="135.1" x2="-209.9" y2="141.8"/>
	<line fill="none" stroke="#000000" stroke-miterlimit="10" x1="-235" y1="155.6" x2="-237.9" y2="163.1"/>
	<line fill="none" stroke="#000000" stroke-miterlimit="10" x1="-275.6" y1="115" x2="-277.6" y2="117.5"/>
	<line fill="none" stroke="#000000" stroke-miterlimit="10" x1="-264.2" y1="120.1" x2="-264.2" y2="123.4"/>
	<line fill="none" stroke="#000000" stroke-miterlimit="10" x1="-274.1" y1="94.9" x2="-275.6" y2="91"/>
	<line fill="none" stroke="#000000" stroke-miterlimit="10" x1="-180.6" y1="41.1" x2="-183.7" y2="43.6"/>
	<line fill="none" stroke="#000000" stroke-miterlimit="10" x1="-157.8" y1="40.5" x2="-155.2" y2="40.5"/>
	<line fill="none" stroke="#000000" stroke-miterlimit="10" x1="-163.4" y1="95.2" x2="-165.2" y2="93"/>
	<line fill="none" stroke="#000000" stroke-miterlimit="10" x1="-179.2" y1="115" x2="-179.2" y2="111.7"/>
	<line fill="none" stroke="#000000" stroke-miterlimit="10" x1="-193.7" y1="105" x2="-190.4" y2="105.5"/>
	<line fill="none" stroke="#000000" stroke-miterlimit="10" x1="-203.2" y1="101.1" x2="-206.1" y2="105"/>
	<line fill="none" stroke="#000000" stroke-miterlimit="10" x1="-228.9" y1="88.2" x2="-228.9" y2="95.2"/>
	<line fill="none" stroke="#000000" stroke-miterlimit="10" x1="-228.9" y1="64.6" x2="-228.9" y2="70.2"/>
	<line fill="none" stroke="#000000" stroke-miterlimit="10" x1="-176.2" y1="66.8" x2="-176.2" y2="70.2"/>
	<line fill="none" stroke="#000000" stroke-miterlimit="10" x1="-159.7" y1="76.5" x2="-155.2" y2="75.8"/>
	<line fill="none" stroke="#000000" stroke-miterlimit="10" x1="-236.4" y1="40.5" x2="-237.9" y2="40.5"/>
	<line fill="none" stroke="#000000" stroke-miterlimit="10" x1="-212.1" y1="-32.5" x2="-212.1" y2="-36.9"/>
	<line fill="none" stroke="#000000" stroke-miterlimit="10" x1="-223.3" y1="-30.2" x2="-225.6" y2="-32.5"/>
	<line fill="none" stroke="#000000" stroke-miterlimit="10" x1="-193.2" y1="-14.5" x2="-190.4" y2="-17.3"/>
	<line fill="none" stroke="#000000" stroke-miterlimit="10" x1="-190.1" y1="-1.1" x2="-187" y2="-3.5"/>
	<line fill="none" stroke="#000000" stroke-miterlimit="10" x1="-180.9" y1="21.5" x2="-183.7" y2="21.5"/>
	<line fill="none" stroke="#000000" stroke-miterlimit="10" x1="-168" y1="109.4" x2="-171.2" y2="108"/>
	<line fill="none" stroke="#000000" stroke-miterlimit="10" x1="-245.9" y1="130" x2="-246.9" y2="124.5"/>
	<line fill="none" stroke="#000000" stroke-miterlimit="10" x1="-255" y1="122.3" x2="-249.9" y2="118.9"/>
	<line fill="none" stroke="#000000" stroke-miterlimit="10" x1="-261.3" y1="104.4" x2="-256.9" y2="101.1"/>
	<line fill="none" stroke="#000000" stroke-miterlimit="10" x1="-266.9" y1="97.8" x2="-264.5" y2="94.9"/>
	<line fill="none" stroke="#000000" stroke-miterlimit="10" x1="-238.5" y1="93" x2="-240.6" y2="97.8"/>
	<line fill="none" stroke="#000000" stroke-miterlimit="10" x1="-252.9" y1="144.1" x2="-257.5" y2="149.7"/>
	<line fill="none" stroke="#000000" stroke-miterlimit="10" x1="-225.6" y1="152.2" x2="-225.6" y2="159.3"/>
	<line fill="none" stroke="#000000" stroke-miterlimit="10" x1="-228.9" y1="46.8" x2="-228.9" y2="51.9"/>
	<line fill="none" stroke="#000000" stroke-miterlimit="10" x1="-225.6" y1="0.8" x2="-228.9" y2="9.5"/>
	<line fill="none" stroke="#000000" stroke-miterlimit="10" x1="-235.4" y1="8.9" x2="-237.2" y2="5.1"/>
	<line fill="none" stroke="#000000" stroke-miterlimit="10" x1="-228.9" y1="-24.5" x2="-233.3" y2="-25.7"/>
	<line fill="none" stroke="#000000" stroke-miterlimit="10" x1="-235.6" y1="34.1" x2="-239.6" y2="31"/>
	<line fill="none" stroke="#000000" stroke-miterlimit="10" x1="-242.3" y1="58.6" x2="-239.6" y2="51.9"/>
	<line fill="none" stroke="#000000" stroke-miterlimit="10" x1="-267.8" y1="55.3" x2="-270.1" y2="51.9"/>
	<line fill="none" stroke="#000000" stroke-miterlimit="10" x1="-169.6" y1="51.9" x2="-171.2" y2="53.6"/>
	<line fill="none" stroke="#000000" stroke-miterlimit="10" x1="-180.9" y1="58.6" x2="-182.3" y2="55.3"/>
	<line fill="none" stroke="#000000" stroke-miterlimit="10" x1="-149.6" y1="81.2" x2="-146.7" y2="75.8"/>
	<line fill="none" stroke="#000000" stroke-miterlimit="10" x1="-170.4" y1="89.5" x2="-169.6" y2="93"/>
	<line fill="none" stroke="#000000" stroke-miterlimit="10" x1="-140.7" y1="95.4" x2="-137.3" y2="96.4"/>
	<line fill="none" stroke="#000000" stroke-miterlimit="10" x1="-187" y1="116" x2="-187" y2="111.1"/>
	<line fill="none" stroke="#000000" stroke-miterlimit="10" x1="-171.9" y1="131.8" x2="-171.2" y2="138.5"/>
	<line fill="none" stroke="#000000" stroke-miterlimit="10" x1="-193.7" y1="150.9" x2="-187" y2="148.5"/>
</g>
</svg>
