<?xml version="1.0" encoding="utf-8"?>
<!-- Generator: Adobe Illustrator 18.0.0, SVG Export Plug-In . SVG Version: 6.00 Build 0)  -->
<!DOCTYPE svg PUBLIC "-//W3C//DTD SVG 1.1//EN" "http://www.w3.org/Graphics/SVG/1.1/DTD/svg11.dtd">
<svg version="1.1" id="Layer_1" xmlns="http://www.w3.org/2000/svg" xmlns:xlink="http://www.w3.org/1999/xlink" x="0px" y="0px"
	 viewBox="0 0 216 216" enable-background="new 0 0 216 216" xml:space="preserve">
<path fill="#CE6428" stroke="#000000" stroke-miterlimit="10" d="M65.7,156.7c6.6,50.4,6.6,50.4,6.6,50.4l0,0c0,0,36.7,16.6,75.9,0
	l8.5-50.9"/>
<line fill="none" stroke="#000000" stroke-miterlimit="10" x1="65.7" y1="156.7" x2="156.7" y2="156.1"/>
<path fill="#CE6428" stroke="#000000" stroke-miterlimit="10" d="M161.6,137.8v16.8c0,0-60.7,20.3-100.1,0v-16.8H161.6z"/>
<ellipse fill="#A23B22" stroke="#000000" stroke-miterlimit="10" cx="111.5" cy="136.7" rx="50.1" ry="10.4"/>
<path fill="#77C044" stroke="#000000" stroke-miterlimit="10" d="M123.7,146.1c-0.6,2-29.3,0-29.3,0v-14.5c0,0-5.9,1.2-12.5,0
	s-16-17.6-16.8-23.9c-0.8-6.3-0.8-9.8,2-10.6c2.7-0.8,8.2,4.3,9,6.7c0.8,2.3,4.7,12.5,5.1,14.9c0.4,2.3,12.5,5.4,13.1,3.1
	c0.6-2.3,0-24.7,0-24.7S76.9,87.2,74,82.7c-3.5-5.2-1.3-34.4,0-41.9s4.8-12.9,6.7-12.9c2,0,12.2,1.7,9.4,14.1c0,0-0.8,11.7-1.2,19.2
	c-0.4,7.4,0.4,16.8,3.5,16c3.1-0.8,1.1-36.8,1.7-40.3c0.6-3.5-0.9-27.8,13.1-28.9c14.1-1.2,15.3,11.3,16.4,15.3s3.5,7,4.3,24.6
	c0.8,17.6-2,29.3-2,29.3s5.1,2,6.3-10.1c1.2-12.1-3.1-42.2,2.3-41.9c5.5,0.4,9-2,10.6,4.7s3.9,19.6,3.5,33.3
	c-0.4,13.7-0.4,24.3-7,28.9c-6.6,4.7-18,6.3-18,4.7c0-1.6-0.4,14.9-0.4,14.9s16,2,18-4.3c2-6.3,5.4-19.4,9.8-18.8
	c0,0,5.5-4.3,8.6,5.1c3.1,9.4-3.1,19.2-4.7,21.5c-1.6,2.3-9.4,7.8-16.4,7.8c0,0-10.2,5.1-15.6,2.3
	C119.4,126.5,124.9,142.2,123.7,146.1z"/>
<line fill="none" stroke="#000000" stroke-miterlimit="10" x1="107.7" y1="22.1" x2="108.1" y2="25.2"/>
<line fill="none" stroke="#000000" stroke-miterlimit="10" x1="116.7" y1="37.3" x2="117.1" y2="42.8"/>
<line fill="none" stroke="#000000" stroke-miterlimit="10" x1="101" y1="50.2" x2="101.8" y2="54.5"/>
<line fill="none" stroke="#000000" stroke-miterlimit="10" x1="112.6" y1="54.5" x2="112.6" y2="56.9"/>
<line fill="none" stroke="#000000" stroke-miterlimit="10" x1="123.7" y1="64.3" x2="122.9" y2="67.1"/>
<line fill="none" stroke="#000000" stroke-miterlimit="10" x1="103.4" y1="77.5" x2="101.8" y2="77.5"/>
<line fill="none" stroke="#000000" stroke-miterlimit="10" x1="122.9" y1="82.3" x2="122.9" y2="84.3"/>
<line fill="none" stroke="#000000" stroke-miterlimit="10" x1="122.9" y1="50.2" x2="122.9" y2="52.4"/>
<line fill="none" stroke="#000000" stroke-miterlimit="10" x1="120.2" y1="13.5" x2="122.9" y2="11.9"/>
<line fill="none" stroke="#000000" stroke-miterlimit="10" x1="72.7" y1="52.4" x2="70.1" y2="52.4"/>
<line fill="none" stroke="#000000" stroke-miterlimit="10" x1="74" y1="77.5" x2="70.1" y2="77.5"/>
<line fill="none" stroke="#000000" stroke-miterlimit="10" x1="86.1" y1="92.2" x2="81.9" y2="95.2"/>
<line fill="none" stroke="#000000" stroke-miterlimit="10" x1="94.3" y1="104.2" x2="90.5" y2="105"/>
<line fill="none" stroke="#000000" stroke-miterlimit="10" x1="108.1" y1="89.8" x2="107.7" y2="95.2"/>
<line fill="none" stroke="#000000" stroke-miterlimit="10" x1="92.4" y1="83.3" x2="94.3" y2="84.3"/>
<line fill="none" stroke="#000000" stroke-miterlimit="10" x1="140.5" y1="74.5" x2="143.3" y2="77.5"/>
<line fill="none" stroke="#000000" stroke-miterlimit="10" x1="138.2" y1="56.9" x2="141.9" y2="52.4"/>
<line fill="none" stroke="#000000" stroke-miterlimit="10" x1="147.2" y1="40.1" x2="150.3" y2="42.8"/>
<line fill="none" stroke="#000000" stroke-miterlimit="10" x1="148.5" y1="71.8" x2="150.3" y2="74.5"/>
<line fill="none" stroke="#000000" stroke-miterlimit="10" x1="135.6" y1="95.2" x2="135.1" y2="99.5"/>
<line fill="none" stroke="#000000" stroke-miterlimit="10" x1="134.7" y1="25.2" x2="132.3" y2="22.1"/>
<line fill="none" stroke="#000000" stroke-miterlimit="10" x1="120.2" y1="117.9" x2="117.1" y2="122.6"/>
<line fill="none" stroke="#000000" stroke-miterlimit="10" x1="116.7" y1="108.5" x2="112.6" y2="109.3"/>
<line fill="none" stroke="#000000" stroke-miterlimit="10" x1="94.2" y1="121.8" x2="98.7" y2="122.6"/>
<line fill="none" stroke="#000000" stroke-miterlimit="10" x1="74" y1="125.3" x2="74" y2="125.3"/>
<line fill="none" stroke="#000000" stroke-miterlimit="10" x1="71.4" y1="104.2" x2="71.4" y2="108.5"/>
<line fill="none" stroke="#000000" stroke-miterlimit="10" x1="74" y1="125.3" x2="70.1" y2="125.3"/>
<line fill="none" stroke="#000000" stroke-miterlimit="10" x1="88.1" y1="132.1" x2="87.7" y2="135.5"/>
<line fill="none" stroke="#000000" stroke-miterlimit="10" x1="81.9" y1="125.3" x2="86.1" y2="125.3"/>
<line fill="none" stroke="#000000" stroke-miterlimit="10" x1="103.4" y1="132.1" x2="107.7" y2="135.5"/>
<line fill="none" stroke="#000000" stroke-miterlimit="10" x1="118.6" y1="135.5" x2="118.6" y2="139"/>
<line fill="none" stroke="#000000" stroke-miterlimit="10" x1="112.6" y1="143" x2="112.6" y2="146.9"/>
<line fill="none" stroke="#000000" stroke-miterlimit="10" x1="123.3" y1="139.7" x2="125.7" y2="139"/>
<line fill="none" stroke="#000000" stroke-miterlimit="10" x1="132.3" y1="125.3" x2="132.3" y2="127.7"/>
<line fill="none" stroke="#000000" stroke-miterlimit="10" x1="130.4" y1="117.9" x2="132.3" y2="116.4"/>
<line fill="none" stroke="#000000" stroke-miterlimit="10" x1="141.9" y1="113.2" x2="143.3" y2="116.4"/>
<line fill="none" stroke="#000000" stroke-miterlimit="10" x1="147.2" y1="105" x2="150.3" y2="104.2"/>
<line fill="none" stroke="#000000" stroke-miterlimit="10" x1="150.3" y1="111.3" x2="150.3" y2="114.8"/>
<line fill="none" stroke="#000000" stroke-miterlimit="10" x1="154.2" y1="95.2" x2="154.2" y2="97.4"/>
<line fill="none" stroke="#000000" stroke-miterlimit="10" x1="159.8" y1="105" x2="160.6" y2="106.4"/>
<line fill="none" stroke="#000000" stroke-miterlimit="10" x1="159.7" y1="93.7" x2="162.8" y2="89.8"/>
<line fill="none" stroke="#000000" stroke-miterlimit="10" x1="149.4" y1="120.3" x2="150.3" y2="122.6"/>
<line fill="none" stroke="#000000" stroke-miterlimit="10" x1="156.2" y1="113.2" x2="159.7" y2="116.4"/>
<line fill="none" stroke="#000000" stroke-miterlimit="10" x1="84" y1="64.3" x2="81.9" y2="65.7"/>
<line fill="none" stroke="#000000" stroke-miterlimit="10" x1="78.3" y1="40.1" x2="79.5" y2="42.8"/>
<line fill="none" stroke="#000000" stroke-miterlimit="10" x1="105.5" y1="105" x2="103.4" y2="106.4"/>
<line fill="none" stroke="#000000" stroke-miterlimit="10" x1="101" y1="117.1" x2="104.5" y2="121.4"/>
<line fill="none" stroke="#000000" stroke-miterlimit="10" x1="94.4" y1="113.2" x2="92.4" y2="114.8"/>
<line fill="none" stroke="#000000" stroke-miterlimit="10" x1="78.7" y1="111.3" x2="79.5" y2="109.3"/>
<line fill="none" stroke="#000000" stroke-miterlimit="10" x1="76.5" y1="85.3" x2="74" y2="86.6"/>
<line fill="none" stroke="#000000" stroke-miterlimit="10" x1="81.9" y1="77.5" x2="81.9" y2="82.3"/>
<line fill="none" stroke="#000000" stroke-miterlimit="10" x1="130.4" y1="84.3" x2="134.7" y2="86.6"/>
<line fill="none" stroke="#000000" stroke-miterlimit="10" x1="138.2" y1="38.5" x2="140.1" y2="37.3"/>
<line fill="none" stroke="#000000" stroke-miterlimit="10" x1="105.5" y1="37.9" x2="105.5" y2="41.4"/>
<line fill="none" stroke="#000000" stroke-miterlimit="10" x1="138.2" y1="44" x2="138.2" y2="47.5"/>
<line fill="none" stroke="#000000" stroke-miterlimit="10" x1="107.7" y1="61.2" x2="107.7" y2="65.7"/>
<line fill="none" stroke="#000000" stroke-miterlimit="10" x1="114.6" y1="76" x2="112.6" y2="76"/>
<line fill="none" stroke="#000000" stroke-miterlimit="10" x1="110.4" y1="79.9" x2="113.6" y2="84.3"/>
<line fill="none" stroke="#000000" stroke-miterlimit="10" x1="114.6" y1="93.7" x2="116.7" y2="95.2"/>
<line fill="none" stroke="#000000" stroke-miterlimit="10" x1="78.7" y1="61.2" x2="79.5" y2="56.9"/>
<line fill="none" stroke="#000000" stroke-miterlimit="10" x1="71.4" y1="61.2" x2="68.2" y2="61.2"/>
<line fill="none" stroke="#000000" stroke-miterlimit="10" x1="88.1" y1="31.2" x2="88.1" y2="27.9"/>
<line fill="none" stroke="#000000" stroke-miterlimit="10" x1="101" y1="16.6" x2="102.6" y2="20.5"/>
<line fill="none" stroke="#000000" stroke-miterlimit="10" x1="95.6" y1="22.1" x2="92.4" y2="20.5"/>
<line fill="none" stroke="#000000" stroke-miterlimit="10" x1="78.9" y1="29" x2="78.3" y2="27.9"/>
<line fill="none" stroke="#000000" stroke-miterlimit="10" x1="74.8" y1="37.3" x2="72.7" y2="37.3"/>
<line fill="none" stroke="#000000" stroke-miterlimit="10" x1="84" y1="45.7" x2="81.9" y2="47.5"/>
<line fill="none" stroke="#000000" stroke-miterlimit="10" x1="114.6" y1="25.2" x2="118.6" y2="27.9"/>
<line fill="none" stroke="#000000" stroke-miterlimit="10" x1="145.2" y1="29.9" x2="147.2" y2="26.6"/>
<line fill="none" stroke="#000000" stroke-miterlimit="10" x1="76.5" y1="32.7" x2="75.2" y2="31.2"/>
<line fill="none" stroke="#000000" stroke-miterlimit="10" x1="110.4" y1="125.3" x2="112" y2="130"/>
<line fill="none" stroke="#000000" stroke-miterlimit="10" x1="94.4" y1="139.7" x2="92.4" y2="145"/>
<line fill="none" stroke="#000000" stroke-miterlimit="10" x1="66" y1="111.3" x2="64.6" y2="113"/>
<line fill="none" stroke="#000000" stroke-miterlimit="10" x1="74" y1="114.8" x2="74" y2="117.1"/>
<line fill="none" stroke="#000000" stroke-miterlimit="10" x1="67" y1="97.2" x2="66" y2="94.4"/>
<line fill="none" stroke="#000000" stroke-miterlimit="10" x1="132.5" y1="59.5" x2="130.4" y2="61.2"/>
<line fill="none" stroke="#000000" stroke-miterlimit="10" x1="148.5" y1="59" x2="150.3" y2="59"/>
<line fill="none" stroke="#000000" stroke-miterlimit="10" x1="144.6" y1="97.4" x2="143.3" y2="95.8"/>
<line fill="none" stroke="#000000" stroke-miterlimit="10" x1="133.5" y1="111.3" x2="133.5" y2="108.9"/>
<line fill="none" stroke="#000000" stroke-miterlimit="10" x1="123.3" y1="104.2" x2="125.7" y2="104.6"/>
<line fill="none" stroke="#000000" stroke-miterlimit="10" x1="116.7" y1="101.5" x2="114.6" y2="104.2"/>
<line fill="none" stroke="#000000" stroke-miterlimit="10" x1="98.7" y1="92.5" x2="98.7" y2="97.4"/>
<line fill="none" stroke="#000000" stroke-miterlimit="10" x1="98.7" y1="76" x2="98.7" y2="79.9"/>
<line fill="none" stroke="#000000" stroke-miterlimit="10" x1="135.6" y1="77.5" x2="135.6" y2="79.9"/>
<line fill="none" stroke="#000000" stroke-miterlimit="10" x1="147.2" y1="84.3" x2="150.3" y2="83.8"/>
<line fill="none" stroke="#000000" stroke-miterlimit="10" x1="93.4" y1="59" x2="92.4" y2="59"/>
<line fill="none" stroke="#000000" stroke-miterlimit="10" x1="110.4" y1="7.9" x2="110.4" y2="4.9"/>
<line fill="none" stroke="#000000" stroke-miterlimit="10" x1="102.6" y1="9.5" x2="101" y2="7.9"/>
<line fill="none" stroke="#000000" stroke-miterlimit="10" x1="123.7" y1="20.5" x2="125.7" y2="18.6"/>
<line fill="none" stroke="#000000" stroke-miterlimit="10" x1="125.9" y1="29.9" x2="128" y2="28.2"/>
<line fill="none" stroke="#000000" stroke-miterlimit="10" x1="132.3" y1="45.7" x2="130.4" y2="45.7"/>
<line fill="none" stroke="#000000" stroke-miterlimit="10" x1="141.3" y1="107.4" x2="139.1" y2="106.4"/>
<line fill="none" stroke="#000000" stroke-miterlimit="10" x1="86.8" y1="121.8" x2="86.1" y2="117.9"/>
<line fill="none" stroke="#000000" stroke-miterlimit="10" x1="80.4" y1="116.4" x2="84" y2="114"/>
<line fill="none" stroke="#000000" stroke-miterlimit="10" x1="76" y1="103.8" x2="79.1" y2="101.5"/>
<line fill="none" stroke="#000000" stroke-miterlimit="10" x1="72" y1="99.2" x2="73.7" y2="97.2"/>
<line fill="none" stroke="#000000" stroke-miterlimit="10" x1="92" y1="95.8" x2="90.5" y2="99.2"/>
<line fill="none" stroke="#000000" stroke-miterlimit="10" x1="81.9" y1="131.6" x2="78.7" y2="135.5"/>
<line fill="none" stroke="#000000" stroke-miterlimit="10" x1="101" y1="137.3" x2="101" y2="142.3"/>
<line fill="none" stroke="#000000" stroke-miterlimit="10" x1="98.7" y1="63.4" x2="98.7" y2="67.1"/>
<line fill="none" stroke="#000000" stroke-miterlimit="10" x1="101" y1="31.2" x2="98.7" y2="37.3"/>
<line fill="none" stroke="#000000" stroke-miterlimit="10" x1="94.2" y1="36.9" x2="92.9" y2="34.3"/>
<line fill="none" stroke="#000000" stroke-miterlimit="10" x1="98.7" y1="13.6" x2="95.6" y2="12.7"/>
<line fill="none" stroke="#000000" stroke-miterlimit="10" x1="94" y1="54.5" x2="91.2" y2="52.4"/>
<line fill="none" stroke="#000000" stroke-miterlimit="10" x1="89.3" y1="71.8" x2="91.2" y2="67.1"/>
<line fill="none" stroke="#000000" stroke-miterlimit="10" x1="71.4" y1="69.4" x2="69.8" y2="67.1"/>
<line fill="none" stroke="#000000" stroke-miterlimit="10" x1="140.2" y1="67.1" x2="139.1" y2="68.2"/>
<line fill="none" stroke="#000000" stroke-miterlimit="10" x1="132.3" y1="71.8" x2="131.3" y2="69.4"/>
<line fill="none" stroke="#000000" stroke-miterlimit="10" x1="154.2" y1="87.6" x2="156.2" y2="83.8"/>
<line fill="none" stroke="#000000" stroke-miterlimit="10" x1="139.7" y1="93.4" x2="140.2" y2="95.8"/>
<line fill="none" stroke="#000000" stroke-miterlimit="10" x1="160.5" y1="97.5" x2="162.8" y2="98.2"/>
<line fill="none" stroke="#000000" stroke-miterlimit="10" x1="128" y1="111.9" x2="128" y2="108.5"/>
<line fill="none" stroke="#000000" stroke-miterlimit="10" x1="138.6" y1="123" x2="139.1" y2="127.7"/>
<line fill="none" stroke="#000000" stroke-miterlimit="10" x1="123.3" y1="136.4" x2="128" y2="134.7"/>
</svg>
