<?xml version="1.0" encoding="utf-8"?>
<!-- Generator: Adobe Illustrator 18.0.0, SVG Export Plug-In . SVG Version: 6.00 Build 0)  -->
<!DOCTYPE svg PUBLIC "-//W3C//DTD SVG 1.1//EN" "http://www.w3.org/Graphics/SVG/1.1/DTD/svg11.dtd">
<svg version="1.1" xmlns="http://www.w3.org/2000/svg" xmlns:xlink="http://www.w3.org/1999/xlink" x="0px" y="0px"
	 viewBox="0 0 216 216" enable-background="new 0 0 216 216" xml:space="preserve">
<g id="pot">
	<polygon fill="#6A3023" points="112.2,6.9 99.7,20.3 88.1,164.4 93.4,164.4 104.7,21 112.2,12 117.9,20.7 118.5,164.4 124.8,164.4 
		121.8,20.9 	"/>
	<polygon fill="#6A3023" points="110.2,14.4 104.2,165.2 107.8,165.6 113.4,13.9 112.2,12 	"/>
	<polygon fill="#6A3023" points="103.9,28.1 117.9,28.1 117.9,31.4 103.9,30.9 	"/>
	<polygon fill="#6A3023" points="102.4,50.9 102.1,54.8 118,55.1 118,51.4 	"/>
	<polygon fill="#6A3023" points="100.4,71.3 100.4,76.2 118.1,76.6 118.5,71.9 	"/>
	<polygon fill="#6A3023" points="99.1,92.7 98.6,97.4 118.2,98.1 118.2,94.2 	"/>
	<polygon fill="#6A3023" points="96.6,123.7 96.2,128.9 118.5,130.1 118.5,124.5 	"/>
	<polygon fill="#6A3023" points="95.2,140.8 94.8,146.3 118.8,147.9 118.8,142.9 	"/>
	<polygon fill="#6A3023" points="97.9,107.9 97.2,111 118.2,113 118.2,109.5 	"/>
	<polygon fill="#2F2D2C" points="69.5,163.2 70.2,178 143.5,178 134.6,160.8 	"/>
	<polygon fill="#828181" points="70.2,178 75.6,215.4 131.1,214.9 140.7,178 	"/>
	<polygon fill="#676666" points="131.1,178 124.7,214.9 132.6,214.9 143.5,178 	"/>
</g>
<g id="vine">
</g>
<g id="leaves">
</g>
</svg>
