<?xml version="1.0" encoding="utf-8"?>
<!-- Generator: Adobe Illustrator 18.0.0, SVG Export Plug-In . SVG Version: 6.00 Build 0)  -->
<!DOCTYPE svg PUBLIC "-//W3C//DTD SVG 1.1//EN" "http://www.w3.org/Graphics/SVG/1.1/DTD/svg11.dtd">
<svg version="1.1" xmlns="http://www.w3.org/2000/svg" xmlns:xlink="http://www.w3.org/1999/xlink" x="0px" y="0px"
	 viewBox="0 0 216 216" enable-background="new 0 0 216 216" xml:space="preserve">
<g id="pot">
</g>
<g id="vine">
</g>
<g id="leaves">
	<path fill="none" stroke="#7ABA43" stroke-miterlimit="10" d="M69.6,134.4c0,0,6,2.6,8.8,6.3"/>
	<path fill="none" stroke="#7ABA43" stroke-miterlimit="10" d="M75.2,133.1c0,0,2,4.4,4.1,6.1"/>
	<path fill="none" stroke="#73915F" stroke-miterlimit="10" d="M106.3,180.1c0,0,4.7-6-4.7-5.5c0,0-18.9,12.4-24.6,12.2
		c-5.7-0.2-17.7,0-17.7,0"/>
	<path fill="none" stroke="#73915F" stroke-miterlimit="10" d="M115.5,180.4c0.3-8,3.6-9,3.6-9s2.2-1.8,24.4,9.3
		c0,0,2.3,3.6,4.1-0.7c1.8-4.3,1.2-4.3,1.2-4.3"/>
	<path fill="none" stroke="#73915F" stroke-miterlimit="10" d="M129.5,168v6.5c0,0-2.1,0.4-3.6,4.7"/>
	<path fill="none" stroke="#73915F" stroke-miterlimit="10" d="M118.7,169.5c0,0,1.8,6.1,4.2,9.2s10.9,22,20.2,18"/>
	<path fill="none" stroke="#73915F" stroke-miterlimit="10" d="M133,190.7c0,0,3.8,0.2,4.9,4.2c1.1,4.1,0,1.9,0,1.9"/>
	<path fill="none" stroke="#73915F" stroke-miterlimit="10" d="M145.5,149.2c0,0,13.3-3,15.8-13.8c2.6-10.8,1.3-13.3,1.3-13.3"/>
	<path fill="none" stroke="#73915F" stroke-miterlimit="10" d="M150.7,140.2c0,0,0.9,4.4-5.2,9"/>
	<path fill="none" stroke="#7ABA43" stroke-miterlimit="10" d="M104.6,167.6c0,0,6.3-13.8,12.2-16.7"/>
	<path fill="none" stroke="#5D714F" stroke-miterlimit="10" d="M107.4,173.6c0,0,1.9,2.2,2.7,4"/>
	<path fill="none" stroke="#73915F" stroke-miterlimit="10" d="M79.2,174.6c0,0,1.2,2.8,3.1,4.7c1.9,1.8,0,6.1,0,6.1"/>
	<path fill="none" stroke="#7ABA43" stroke-miterlimit="10" d="M81.2,178.6c0,0-2.5,6.8-7.8,8.3"/>
	<path fill="none" stroke="#73915F" stroke-miterlimit="10" d="M104.1,174.7c0,0-5.7-16.4-13.2-18.5c0,0-9.5,18-1.9,26"/>
	<path fill="none" stroke="#73915F" stroke-miterlimit="10" d="M90.9,156.1c0,0,1.3-20.6,7.3-20.9"/>
	<path fill="none" stroke="#73915F" stroke-miterlimit="10" d="M79.2,147.6c0,0-6.1-6.1-3.4-10.3s5.8-5.9,5.8-5.9s15.4-10.7,17.5-7
		s-8.9,11.7-8.9,11.7"/>
	<path fill="none" stroke="#73915F" stroke-miterlimit="10" d="M93.7,128.4c0,0,5-5.5,5.6-7.8"/>
	<path fill="none" stroke="#73915F" stroke-miterlimit="10" d="M89.3,119.6c0,0,5.1-6.8,9-7c4-0.2,0-4.7,0-4.7s0.5-7.3,2.4-6.8"/>
	<path fill="none" stroke="#73915F" stroke-miterlimit="10" d="M88.1,119.6c0,0,0.5-11.7,8.1-17.4c7.6-5.7,4.9-17.9,4.9-17.9
		s-1.5-3.6-5.6-4.7"/>
	<path fill="none" stroke="#73915F" stroke-miterlimit="10" d="M103.6,135.2c0,0,5.6-2.2,8.5-6.3c2.8-4.1-1.3-7.7-1.3-7.7
		s-0.7-0.8-1.9,0.9c-1.2,1.7,1.8,2.4,1.8,2.4s7.1-5.8,4.6-14.9s-8.5-9.2-8.5-9.2"/>
	<path fill="none" stroke="#7ABA43" stroke-miterlimit="10" d="M103.6,71.1c0,0-4.6-19.1,0-23.7c4.6-4.6,10.6-14.8,10.5-16.8
		c-0.1-2.1,7-16.2,8.5-15.7"/>
	<path fill="none" stroke="#7ABA43" stroke-miterlimit="10" d="M103.6,47.4c0,0,0-7-3-9.7"/>
	<path fill="none" stroke="#7ABA43" stroke-miterlimit="10" d="M115.8,112c0,0,9.4-53,9.3-57.3c-0.1-4.2,4.4-18.1,7.2-16.3"/>
	<path fill="none" stroke="#7ABA43" stroke-miterlimit="10" d="M123.4,66.8c0,0,2.3-6.1,4.7-5.4"/>
	<path fill="#5DAE4D" d="M107.2,177.5c0,0-0.5-3.1-3.3-3.5c-2.9-0.4-8.5,5.6-8.5,5.6l0.7,2.6l1.8,1.2c0,0,0.7,2.3-0.6,2.7
		c-1.3,0.4-1.3,0.4-1.3,0.4l-0.8,9.6l8.9-3.8c0,0,1.2-1.7,1.3-3.1l4.5,0.5c0,0,3.5-6.1,2.5-9c-0.9-2.9-0.4-2.8-2.4-2.7
		S107.2,177.5,107.2,177.5z"/>
	<path fill="#96C566" d="M111.3,178c0,0,1,0.9,1.1,2.7c0.1,1.8-0.9,8.1-2.5,9c-1.7,0.9-3.1-0.7-4.5-0.5l-1.3,3.1l-8.9,3.8l12.1-18.5
		C107.2,177.5,110.8,178.8,111.3,178z"/>
	<path fill="#4C6D32" d="M121.8,175.9c0,0,0.2,1.2,0.5,1.5c0.3,0.4,3.9-1.1,4.1-1.8c0.2-0.7-0.7-2.2-0.7-2.2l0.7-0.9
		c0,0,0.6-3.4,0.1-3.5c-0.5-0.1-3.5,1.4-3.5,1.4l-0.2,1.3l-1.2-0.4l-1.2,0.3c0,0-0.9,2.9-0.3,3.5
		C120.7,175.6,120.7,176.3,121.8,175.9z"/>
	<path fill="#73915F" d="M121.8,175.9l4.7-6.8c0,0,0.5,2.6-0.1,3.5s-0.7,0.9-0.7,0.9s1,1.8,0.7,2.2c-0.3,0.4-3.1,2.1-4.1,1.8
		L121.8,175.9z"/>
	<path fill="#5DAE4D" d="M90.6,127.5c0,0,2.3-2,4.7-0.6c2.4,1.4,2.9,9.4,2.9,9.4l-2.1,1.5l-2.1-0.1c0,0-2,1.3-1.2,2.3
		c0.8,1.1,0.8,1.1,0.8,1.1l-5.3,7.7l-4.3-8.2c0,0,0.1-2.1,0.9-3.1l-3.7-2.3c0,0,1.2-6.7,3.6-8.3c2.5-1.6,2-1.9,3.4-0.6
		S90.6,127.5,90.6,127.5z"/>
	<path fill="#96C566" d="M87.2,125.4c0,0-1.3,0.1-2.5,1.4s-4.4,6.6-3.6,8.3c0.7,1.6,2.8,1.3,3.7,2.3l-0.9,3.1l4.3,8.2l2.4-21.3
		C90.6,127.5,87.1,126.4,87.2,125.4z"/>
	<path fill="#4C6D32" d="M55.6,184.5c0,0-3.6,2-5.2,2c-1.5,0-5.4-12.7-3.9-14.9c1.5-2.1,7.4-2.9,7.4-2.9l0.9-3.6
		c0,0,7.7-8.8,9.1-7.8c1.4,1,3.8,12.2,3.8,12.2l-3,3.1l3.7,2.4l1.7,3.8c0,0-5.9,8.7-8.5,8.3C58.9,186.9,56.9,188.3,55.6,184.5z"/>
	<path fill="#73915F" d="M55.6,184.5l8.3-27.2c0,0-8.2,4.2-9.1,7.8c-0.9,3.6-0.9,3.6-0.9,3.6s-7,1.3-7.4,2.9s1,12.9,3.9,14.9
		L55.6,184.5z"/>
	<path fill="#5DAE4D" d="M102.5,66.8c0,0,2-2.4,0.4-4.9s-9.9-2.6-9.9-2.6l-1.5,2.3l0.2,2.1c0,0-1.2,2.1-2.4,1.4s-1.1-0.7-1.1-0.7
		l-7.8,5.9l8.7,4.1c0,0,2.1-0.2,3.2-1.1l2.6,3.7c0,0,6.9-1.5,8.4-4.2c1.6-2.6,1.9-2.2,0.5-3.6C102.6,67.9,102.5,66.8,102.5,66.8z"/>
	<path fill="#96C566" d="M104.8,70.2c0,0,0,1.3-1.3,2.6s-6.7,4.8-8.4,4.2c-1.7-0.7-1.5-2.8-2.6-3.7l-3.2,1.1l-8.7-4.1l21.9-3.5
		C102.5,66.8,103.8,70.4,104.8,70.2z"/>
	<path fill="#4C6D32" d="M127.8,155.8c0,0-0.8-3.7-0.5-5.1c0.4-1.4,12.6-1.5,14.1,0.4c1.5,1.9,0.6,7.2,0.6,7.2l3,1.7
		c0,0,5.8,9.1,4.5,10c-1.2,0.9-11.7,0.2-11.7,0.2l-2-3.5l-3.1,2.6l-3.8,0.5c0,0-6.1-7.4-5.2-9.6S124.2,156,127.8,155.8z"/>
	<path fill="#73915F" d="M127.8,155.8l21.8,14.2c0,0-1.6-8.3-4.5-10s-3-1.7-3-1.7s0.6-6.5-0.6-7.2s-11.6-2.4-14.1-0.4L127.8,155.8z"
		/>
	<path fill="#5DAE4D" d="M92.7,106.2c0,0,0.5-2.2,2.6-2.4c2.1-0.2,5.8,4.5,5.8,4.5l-0.6,1.8l-1.3,0.8c0,0-0.7,1.6,0.3,2
		s0.9,0.3,0.9,0.3l0.1,7.1l-6.2-3.2c0,0-0.8-1.3-0.8-2.3l-3.3,0.2c0,0-2.2-4.6-1.3-6.7s0.4-2,1.8-1.8
		C92,106.6,92.7,106.2,92.7,106.2z"/>
	<path fill="#96C566" d="M89.7,106.4c0,0-0.7,0.6-0.9,1.9c-0.2,1.3,0.2,6,1.3,6.7c1.2,0.7,2.3-0.4,3.3-0.2l0.8,2.3l6.2,3.2
		l-7.7-14.1C92.7,106.2,90.1,107,89.7,106.4z"/>
	<path fill="#4C6D32" d="M91.6,150.7c0,0-0.7-2.3-0.5-3.2c0.2-0.9,7.8-1.4,8.8-0.3s0.7,4.5,0.7,4.5l1.9,1c0,0,3.9,5.4,3.2,6.1
		c-0.7,0.6-7.3,0.6-7.3,0.6l-1.4-2.1l-1.8,1.7l-2.3,0.5c0,0-4.1-4.4-3.6-5.8C89.9,152.2,89.4,150.9,91.6,150.7z"/>
	<path fill="#73915F" d="M91.6,150.7l14.1,8.1c0,0-1.3-5.1-3.2-6.1c-1.9-1-1.9-1-1.9-1s0.1-4.1-0.7-4.5c-0.8-0.4-7.3-1.1-8.8,0.3
		L91.6,150.7z"/>
	<path fill="#5DAE4D" d="M135.4,177.8c0,0,0.6-4,4.2-4.5s10.8,7.1,10.8,7.1l-0.9,3.3l-2.2,1.6c0,0-0.9,3,0.7,3.4
		c1.7,0.4,1.7,0.4,1.7,0.4l1,12.4l-11.3-4.8c0,0-1.6-2.2-1.7-4l-5.7,0.7c0,0-4.4-7.8-3.2-11.5c1.2-3.7,0.5-3.6,3-3.5
		C134.3,178.7,135.4,177.8,135.4,177.8z"/>
	<path fill="#96C566" d="M130.2,178.6c0,0-1.2,1.1-1.4,3.5c-0.2,2.3,1.1,10.4,3.2,11.5c2.1,1.1,3.9-1,5.7-0.7l1.7,4l11.3,4.8
		l-15.3-23.7C135.4,177.8,130.9,179.6,130.2,178.6z"/>
	<path fill="#BDD036" d="M112.5,188.5c0,0-2.2,1.7-4.5,5.5c-2.2,3.9,1.6-0.7-1.8,2.6c-3.4,3.3,7-3.5,9.2-3.1
		C117.7,193.8,112.5,188.5,112.5,188.5"/>
	<path fill="#4C6D32" d="M127,186.8c0,0,3.4-0.1,4.5,0.4c1.1,0.6-0.8,11.3-2.7,12.3c-1.9,1-6.4-0.6-6.4-0.6l-2,2.3
		c0,0-8.9,3.6-9.5,2.3c-0.6-1.2,1.7-10.3,1.7-10.3l3.4-1.2l-1.8-3.1l0.2-3.4c0,0,7.5-4.1,9.3-2.9C125.6,183.9,127.5,183.6,127,186.8
		z"/>
	<path fill="#73915F" d="M127,186.8L111,203.6c0,0,7.5,0,9.5-2.3s2-2.3,2-2.3s5.6,1.6,6.4,0.6c0.8-1,4-9.8,2.7-12.3L127,186.8z"/>
	<path fill="#5DAE4D" d="M48.9,176.1c0,0,3.5-1.5,5.8,1.1c2.3,2.6-0.3,12.3-0.3,12.3l-3.1,1l-2.4-1c0,0-2.9,0.7-2.4,2.3
		c0.5,1.6,0.5,1.6,0.5,1.6l-9.4,7.1L35.6,189c0,0,1-2.4,2.3-3.4l-3.5-4.2c0,0,4-7.5,7.6-8.4s3.2-1.4,4.3,0.7
		C47.6,175.7,48.9,176.1,48.9,176.1z"/>
	<path fill="#5DAE4D" d="M60.1,186.9c0,0,2.6,0.4,3,2.7c0.4,2.4-4.6,7.2-4.6,7.2l-2.2-0.6l-1.1-1.4c0,0-2-0.6-2.2,0.5
		c-0.3,1.1-0.3,1.1-0.3,1.1l-8.1,0.8l3-7.5c0,0,1.4-1.1,2.6-1.1l-0.5-3.8c0,0,5.1-3,7.5-2.2c2.5,0.7,2.4,0.3,2.3,1.9
		C59.6,186.2,60.1,186.9,60.1,186.9z"/>
	<path fill="#96C566" d="M59.6,183.5c0,0-0.8-0.8-2.3-0.9s-6.8,0.8-7.5,2.2c-0.7,1.4,0.7,2.6,0.5,3.8l-2.6,1.1l-3,7.5l15.5-10.3
		C60.1,186.9,58.9,183.9,59.6,183.5z"/>
	<path fill="#4C6D32" d="M77.8,187.2c0,0,1.5-1.9,2.3-2.2c0.8-0.4,5.7,5.5,5.4,7s-3.2,3.2-3.2,3.2l0.3,2.1c0,0-2.1,6.4-3,6.2
		c-0.9-0.2-4.8-5.6-4.8-5.6l0.9-2.3l-2.5-0.5l-1.7-1.6c0,0,1.1-5.9,2.6-6.3S76.3,185.5,77.8,187.2z"/>
	<path fill="#73915F" d="M77.8,187.2l1.7,16.2c0,0,3.4-4,3-6.2c-0.3-2.1-0.3-2.1-0.3-2.1s3.4-2.3,3.2-3.2c-0.2-0.9-3.4-6.6-5.4-7
		L77.8,187.2z"/>
	<path fill="#88B12B" d="M114.7,179.2c0,0-2.7-3-9.7-0.8l6.2,1.5c0,0,0.2,10.4,4.2,13.6c4.1,3.2,6.5-8.6,7.3-10.1
		c0.7-1.4,3.8-0.9,3.8-0.9l0.7,0.9c0,0,0.6-2.4-0.7-4.2s-6.7-1.1-9.2,0.5S114.7,179.2,114.7,179.2z"/>
	<path fill="#BDD036" d="M115.5,180.3l1.6,13.7c0,0-4.6,1-5.8-14.1l-6.2-1.5C105,178.4,112.8,175.6,115.5,180.3z"/>
	<path fill="#5DAE4D" d="M116.4,150.6c0,0-2.9-1.1-2.7-3.8c0.1-2.8,7-6.9,7-6.9l2.3,1.2l0.8,1.9c0,0,2.1,1.2,2.6,0
		c0.6-1.2,0.6-1.2,0.6-1.2l9.3,1.2l-5.3,7.6c0,0-1.9,0.8-3.2,0.6l-0.4,4.3c0,0-6.5,2-9,0.6c-2.6-1.5-2.6-0.9-2.1-2.8
		C116.8,151.5,116.4,150.6,116.4,150.6z"/>
	<path fill="#96C566" d="M116.1,154.5c0,0,0.7,1.1,2.3,1.6c1.7,0.5,7.9,0.8,9-0.6c1.1-1.4-0.1-3,0.4-4.3l3.2-0.6l5.3-7.6l-20,7.7
		C116.4,150.6,117,154.2,116.1,154.5z"/>
	<path fill="#5DAE4D" d="M129.4,170c0,0-2.3,0.3-3.2-1.6s2.2-7.2,2.2-7.2l2-0.1l1.3,1c0,0,1.8,0,1.8-1c0-1,0-1,0-1l6.7-2.7l-0.8,7.1
		c0,0-1,1.3-1.9,1.6l1.4,3.1c0,0-3.6,3.8-5.9,3.7c-2.3,0-2.1,0.3-2.4-1.1S129.4,170,129.4,170z"/>
	<path fill="#96C566" d="M130.7,172.7c0,0,0.8,0.5,2.2,0.2c1.3-0.3,5.6-2.4,5.9-3.7c0.3-1.4-1.2-2-1.4-3.1l1.9-1.6l0.8-7.1
		L129.4,170C129.4,170,131.2,172.2,130.7,172.7z"/>
	<path fill="#5DAE4D" d="M90.8,156.1c0,0,2.2,0.4,2.5,2.4c0.3,2-4.1,6-4.1,6l-1.8-0.5l-0.9-1.3c0,0-1.6-0.6-1.9,0.4
		c-0.3,0.9-0.3,0.9-0.3,0.9l-6.9,0.4l2.8-6.3c0,0,1.3-0.9,2.2-0.9l-0.3-3.2c0,0,4.4-2.4,6.5-1.6s2,0.3,1.9,1.7
		C90.4,155.5,90.8,156.1,90.8,156.1z"/>
	<path fill="#96C566" d="M90.5,153.2c0,0-0.6-0.7-1.9-0.8s-5.8,0.5-6.5,1.6c-0.6,1.2,0.5,2.2,0.3,3.2l-2.2,0.9l-2.8,6.3l13.5-8.3
		C90.8,156.1,89.9,153.5,90.5,153.2z"/>
	<path fill="#5DAE4D" d="M88.7,119.2c0,0,3.3,0.4,3.8,3.3c0.6,2.9-5.5,9-5.5,9l-2.7-0.6l-1.4-1.8c0,0-2.4-0.7-2.8,0.7
		s-0.3,1.4-0.3,1.4l-10,1.2l3.5-9.4c0,0,1.8-1.4,3.2-1.5l-0.8-4.6c0,0,6.2-3.8,9.3-3c3.1,0.9,3,0.3,2.9,2.3S88.7,119.2,88.7,119.2z"
		/>
	<path fill="#96C566" d="M87.9,115c0,0-1-1-2.9-1s-8.5,1.2-9.3,3c-0.8,1.8,0.9,3.2,0.8,4.6l-3.2,1.5l-3.5,9.4l18.9-13.2
		C88.7,119.2,87.1,115.5,87.9,115z"/>
	<path fill="#4C6D32" d="M78.3,145.6c0,0,2.6-0.1,3.5,0.3c0.9,0.4-0.5,8.7-2,9.5c-1.4,0.8-5-0.4-5-0.4l-1.5,1.8c0,0-6.8,2.8-7.3,1.9
		s1.3-8,1.3-8l2.6-0.9l-1.4-2.4l0.1-2.6c0,0,5.7-3.2,7.1-2.3C77.2,143.4,78.6,143.2,78.3,145.6z"/>
	<path fill="#73915F" d="M78.3,145.6l-12.3,13c0,0,5.8-0.1,7.3-1.9s1.5-1.8,1.5-1.8s4.3,1.2,5,0.4c0.6-0.8,3.1-7.6,2-9.5L78.3,145.6
		z"/>
	<path fill="#5DAE4D" d="M78.7,145.5c0,0-3.3-1.5-2.8-4.8c0.4-3.2,8.8-7.5,8.8-7.5l2.6,1.6l0.8,2.3c0,0,2.3,1.6,3.1,0.3
		c0.8-1.3,0.8-1.3,0.8-1.3l10.8,2.2l-6.9,8.5c0,0-2.3,0.8-3.8,0.4l-0.8,5.1c0,0-7.8,1.8-10.6-0.2c-2.9-1.9-3-1.3-2.2-3.4
		C79.1,146.6,78.7,145.5,78.7,145.5z"/>
	<path fill="#96C566" d="M78,150.1c0,0,0.7,1.3,2.6,2.1c1.9,0.7,9.2,1.7,10.6,0.2c1.5-1.5,0.2-3.6,0.8-5.1l3.8-0.4l6.9-8.5
		l-24.2,7.2C78.7,145.5,79.1,149.8,78,150.1z"/>
	<path fill="#5DAE4D" d="M107.6,162.6c0,0,1.9-1.5,3.7-0.3c1.8,1.2,1.8,7.4,1.8,7.4l-1.7,1.1l-1.6-0.2c0,0-1.6,0.9-1.1,1.8
		c0.5,0.9,0.5,0.9,0.5,0.9l-4.5,5.8l-3-6.6c0,0,0.2-1.6,0.9-2.4l-2.8-2c0,0,1.2-5.1,3.2-6.3c2-1.1,1.7-1.4,2.7-0.3
		C106.8,162.6,107.6,162.6,107.6,162.6z"/>
	<path fill="#96C566" d="M105.1,160.9c0,0-1,0-2,0.9s-3.7,5-3.2,6.3c0.5,1.3,2.1,1.2,2.8,2l-0.9,2.4l3,6.6l2.9-16.5
		C107.6,162.6,104.9,161.6,105.1,160.9z"/>
	<path fill="#5DAE4D" d="M148.8,174.8c0,0-3.2-1.2-3-4.3s7.9-7.7,7.9-7.7l2.6,1.3l0.9,2.1c0,0,2.3,1.3,3,0c0.7-1.3,0.7-1.3,0.7-1.3
		l10.5,1.4l-6,8.6c0,0-2.1,0.9-3.6,0.7l-0.4,4.9c0,0-7.3,2.2-10.1,0.6s-2.9-1.1-2.3-3.1C149.3,175.8,148.8,174.8,148.8,174.8z"/>
	<path fill="#96C566" d="M148.5,179.2c0,0,0.7,1.2,2.6,1.8c1.9,0.5,8.9,1,10.1-0.6c1.3-1.6-0.1-3.4,0.4-4.9l3.6-0.7l6-8.6l-22.5,8.5
		C148.8,174.8,149.5,178.8,148.5,179.2z"/>
	<path fill="#5DAE4D" d="M150.6,195.2c0,0,2.3-2,4.7-0.6c2.4,1.4,2.8,9.4,2.8,9.4l-2.1,1.5l-2.1-0.2c0,0-2,1.3-1.2,2.3
		c0.7,1.1,0.7,1.1,0.7,1.1l-5.4,7.7l-4.3-8.3c0,0,0.2-2.1,1-3.1l-3.7-2.4c0,0,1.2-6.7,3.7-8.2c2.5-1.6,2-1.9,3.4-0.6
		S150.6,195.2,150.6,195.2z"/>
	<path fill="#96C566" d="M147.3,193.1c0,0-1.3,0.1-2.5,1.3s-4.4,6.6-3.7,8.2s2.7,1.3,3.7,2.4l-1,3.1l4.3,8.3l2.6-21.2
		C150.6,195.2,147.1,194,147.3,193.1z"/>
	<path fill="#4C6D32" d="M81.4,178.7c0,0-1.9,0.5-2.6,0.3c-0.7-0.2-1-6.4-0.1-7.2c0.9-0.8,3.7-0.5,3.7-0.5l0.8-1.5
		c0,0,4.5-3.1,5-2.5c0.5,0.6,0.3,6,0.3,6l-1.7,1.1l1.4,1.5l0.3,1.9c0,0-3.6,3.3-4.8,2.8C82.6,180.1,81.5,180.5,81.4,178.7z"/>
	<path fill="#73915F" d="M81.4,178.7l6.9-11.4c0,0-4.2,1-5,2.5s-0.8,1.5-0.8,1.5s-3.3-0.2-3.7,0.5c-0.3,0.7-1,6,0.1,7.2L81.4,178.7z
		"/>
	<path fill="#5DAE4D" d="M118.8,169.7c0,0,0.4,1.4-0.7,2.1s-4.5-0.7-4.5-0.7l-0.2-1.2l0.5-0.8c0,0-0.1-1.1-0.7-1
		c-0.6,0.1-0.6,0.1-0.6,0.1l-2.1-3.8l4.4-0.1c0,0,0.8,0.5,1.1,1l1.7-1.1c0,0,2.5,1.9,2.7,3.3s0.4,1.2-0.5,1.6
		C119,169.3,118.8,169.7,118.8,169.7z"/>
	<path fill="#96C566" d="M120.4,168.7c0,0,0.2-0.5,0-1.3s-1.9-3.2-2.7-3.3c-0.8,0-1.1,0.9-1.7,1.1l-1.1-1l-4.4,0.1l8.4,5.5
		C118.8,169.7,120,168.5,120.4,168.7z"/>
	<path fill="#4C6D32" d="M97.1,123.4c0,0-1.4-0.8-1.7-1.3c-0.3-0.5,3.2-4.3,4.2-4.2c1,0.1,2.4,1.9,2.4,1.9l1.4-0.4
		c0,0,4.4,0.9,4.4,1.5c-0.1,0.6-3.3,3.6-3.3,3.6l-1.6-0.4l-0.1,1.7l-0.9,1.3c0,0-4-0.3-4.4-1.2C96.9,124.9,96.1,124.5,97.1,123.4z"
		/>
	<path fill="#73915F" d="M97.1,123.4l10.7-2.5c0,0-3-1.9-4.4-1.5c-1.4,0.4-1.4,0.4-1.4,0.4s-1.8-2.1-2.4-1.9s-4.1,2.8-4.2,4.2
		L97.1,123.4z"/>
	<path fill="#5DAE4D" d="M96.9,131c0,0-0.5-1.5,0.7-2.3c1.2-0.8,5,0.7,5,0.7l0.2,1.3l-0.5,0.9c0,0,0.2,1.2,0.8,1.1
		c0.7-0.1,0.7-0.1,0.7-0.1l2.5,4.2l-4.8,0.3c0,0-0.9-0.5-1.3-1.1l-1.9,1.2c0,0-2.9-2-3.1-3.5c-0.2-1.5-0.4-1.4,0.5-1.7
		C96.6,131.5,96.9,131,96.9,131z"/>
	<path fill="#96C566" d="M95.2,132.1c0,0-0.2,0.6,0.1,1.5c0.3,0.8,2.2,3.5,3.1,3.5c0.9,0,1.2-1,1.9-1.2l1.3,1.1l4.8-0.3l-9.4-5.7
		C96.9,131,95.6,132.4,95.2,132.1z"/>
	<path fill="#5DAE4D" d="M115.1,112.3c0,0-1.9-0.8-3.2,0.6c-1.2,1.4,0.2,6.7,0.2,6.7l1.7,0.5l1.3-0.5c0,0,1.6,0.4,1.3,1.3
		s-0.3,0.9-0.3,0.9l5.1,3.9l1-6.3c0,0-0.5-1.3-1.3-1.8l1.9-2.3c0,0-2.2-4.1-4.2-4.6c-2-0.5-1.7-0.8-2.3,0.4S115.1,112.3,115.1,112.3
		z"/>
	<path fill="#96C566" d="M116.9,110.2c0,0,0.8-0.2,1.9,0.3c1.1,0.6,4.3,3.4,4.2,4.6s-1.5,1.5-1.9,2.3l1.3,1.8l-1,6.3l-6.2-13.3
		C115.1,112.3,117.1,110.8,116.9,110.2z"/>
	<path fill="#4C6D32" d="M92.6,105.1c0,0,0.9-1.9,0.8-2.6c0-0.8-6.5-2.3-7.5-1.5s-1.2,3.7-1.2,3.7l-1.8,0.6c0,0-4.1,4.1-3.6,4.8
		s6.2,1.5,6.2,1.5L87,110l1.3,1.7l1.9,0.7c0,0,4.1-3.2,3.9-4.5C93.8,106.7,94.4,105.7,92.6,105.1z"/>
	<path fill="#73915F" d="M92.6,105.1l-13.2,5c0,0,1.8-4.2,3.6-4.8s1.8-0.6,1.8-0.6s0.4-3.5,1.2-3.7c0.8-0.2,6.4,0.1,7.5,1.5
		L92.6,105.1z"/>
	<path fill="#BDD036" d="M94.3,77.7L94,74.1l0.8-1.6c0,0-4.8-0.7-4.8-1.4s-6.4,2.5-6.4,2.5s0.4,1.9,0.9,2.4c0.5,0.4-1.7-1.4-4.2,3.2
		s-0.6,8.7-0.6,8.7s3.7-7.1,14.6-7.4l3.7-2.1h3c0,0,0.2-2.7-1.6-2.9S94.3,77.7,94.3,77.7z"/>
	<path fill="#5DAE4D" d="M142,146.8c0,0,1-1.8,2.6-1.4c1.6,0.4,3.3,5.3,3.3,5.3l-1,1.4l-1.2,0.4c0,0-0.9,1.2-0.3,1.8
		c0.6,0.5,0.6,0.5,0.6,0.5l-1.8,6.1l-3.9-4.3c0,0-0.3-1.3,0-2.2l-2.5-0.7c0,0-0.4-4.5,0.8-6c1.2-1.6,0.9-1.6,1.9-1.1
		C141.4,147,142,146.8,142,146.8z"/>
	<path fill="#96C566" d="M139.7,146.2c0,0-0.7,0.3-1.2,1.4s-1.5,5.2-0.8,6c0.7,0.9,1.8,0.2,2.5,0.7l0,2.2l3.9,4.3l-2.1-14.1
		C142,146.8,139.8,146.9,139.7,146.2z"/>
	<path fill="#5DAE4D" d="M150.7,140.5c0,0-1.6,0.7-2.5-0.5c-0.9-1.2,0.7-5.4,0.7-5.4l1.4-0.4l1,0.4c0,0,1.3-0.3,1.2-1
		c-0.1-0.7-0.1-0.7-0.1-0.7l4.6-3.1l0.3,5c0,0-0.6,1-1.2,1.5l1.3,1.9c0,0-2.2,3.2-3.8,3.6c-1.6,0.4-1.5,0.6-1.9-0.3
		C151.3,140.7,150.7,140.5,150.7,140.5z"/>
	<path fill="#96C566" d="M152,142.1c0,0,0.7,0.2,1.6-0.3c0.9-0.4,3.8-2.7,3.8-3.6c0-1-1.1-1.2-1.3-1.9l1.2-1.5l-0.3-5l-6.3,10.6
		C150.7,140.5,152.2,141.7,152,142.1z"/>
	<path fill="#4C6D32" d="M163.3,124.9c0,0-2.8-0.4-3.6-1c-0.8-0.6,2.3-9.1,4-9.7c1.7-0.5,5.2,1.5,5.2,1.5l2-1.6c0,0,7.8-1.6,8.1-0.5
		c0.3,1.1-2.9,8.2-2.9,8.2l-2.9,0.4l1,2.8l-0.6,2.7c0,0-6.7,2.3-8,1C164.1,127.5,162.5,127.4,163.3,124.9z"/>
	<path fill="#73915F" d="M163.3,124.9l15.6-11.3c0,0-6.2-1.1-8.1,0.5s-2,1.6-2,1.6s-4.4-2.2-5.2-1.5c-0.8,0.7-4.8,7.4-4,9.7
		L163.3,124.9z"/>
	<path fill="#4C6D32" d="M156.2,144.3c0,0-2.1,0.1-2.8,0.5c-0.7,0.4,1.1,7,2.3,7.5s4-0.7,4-0.7l1.4,1.3c0,0,5.7,1.8,6,1
		c0.3-0.8-1.6-6.3-1.6-6.3l-2.1-0.5l0.9-2l-0.3-2.1c0,0-4.9-2.2-5.9-1.4S155.7,142.3,156.2,144.3z"/>
	<path fill="#73915F" d="M156.2,144.3l10.8,9.6c0,0-4.7,0.4-6-1s-1.4-1.3-1.4-1.3s-3.4,1.3-4,0.7c-0.6-0.6-3-5.9-2.3-7.5
		L156.2,144.3z"/>
	<path fill="#4C6D32" d="M100.8,37.4c0,0,1,2.4,0.9,3.3c-0.1,1-8.2,2.5-9.5,1.4c-1.2-1.1-1.3-4.7-1.3-4.7l-2.2-0.8
		c0,0-4.9-5.4-4.2-6.2c0.7-0.8,7.8-1.5,7.8-1.5l1.7,2.1l1.7-2.1l2.5-0.8c0,0,5,4.2,4.6,5.8C102.5,35.6,103.2,36.9,100.8,37.4z"/>
	<path fill="#73915F" d="M100.8,37.4l-16.2-6.9c0,0,2,5.4,4.2,6.2c2.2,0.8,2.2,0.8,2.2,0.8s0.4,4.4,1.3,4.7c0.9,0.3,8.1,0.2,9.5-1.4
		L100.8,37.4z"/>
	<path fill="#BDD036" d="M123.3,11.4c0,0-1.9-2.4-9.5,2.9c0,0-2,1.3,0.3,2.4c2.3,1.1,3.4,0,3.4,0l4.8-2.1c0,0,4.4,1.3,6.3,0.4
		c1.9-0.9,5.8-0.4,7.8,1.2l0.8-0.7l-2.5-4.4l1.3-1.3c0,0-0.4-4.7-10.4-2.6C125.5,6.9,123.4,9.8,123.3,11.4z"/>
	<path fill="#5DAE4D" d="M101.6,52.7c0,0,1.7,1.3,1,3c-0.6,1.8-5.9,3.2-5.9,3.2l-1.3-1.2l-0.2-1.4c0,0-1.1-1.2-1.7-0.5
		c-0.6,0.6-0.6,0.6-0.6,0.6L87,53.8l5-4c0,0,1.4-0.2,2.2,0.2l1.1-2.8c0,0,4.6-0.1,6,1.4c1.4,1.5,1.5,1.1,0.9,2.2
		C101.4,51.9,101.6,52.7,101.6,52.7z"/>
	<path fill="#96C566" d="M102.5,50.1c0,0-0.2-0.8-1.2-1.5c-1-0.6-5-2.1-6-1.4c-1,0.7-0.5,2-1.1,2.8l-2.2-0.2l-5,4l14.6-1.2
		C101.6,52.7,101.8,50.2,102.5,50.1z"/>
	<path fill="#5DAE4D" d="M74.2,134.8c0,0,0.6,2.3-1.2,3.5c-1.9,1.2-7.7-1.3-7.7-1.3l-0.3-2l0.8-1.4c0,0-0.2-1.9-1.2-1.7
		c-1,0.2-1,0.2-1,0.2l-3.5-6.6l7.4-0.1c0,0,1.4,0.8,1.9,1.8l3-1.8c0,0,4.3,3.2,4.5,5.6c0.2,2.3,0.6,2.1-0.8,2.6
		C74.6,134.1,74.2,134.8,74.2,134.8z"/>
	<path fill="#96C566" d="M76.9,133.2c0,0,0.4-0.9-0.1-2.2s-3.1-5.5-4.5-5.6c-1.4-0.1-1.9,1.5-3,1.8l-1.9-1.8l-7.4,0.1l14.1,9.4
		C74.2,134.8,76.2,132.7,76.9,133.2z"/>
	<path fill="#4C6D32" d="M100.3,96.5c0,0-2.4-0.7-3.3-0.5s-1.4,8.2-0.2,9.2c1.2,1,4.7,0.7,4.7,0.7l1,2c0,0,5.7,4.1,6.4,3.3
		c0.7-0.8,0.5-7.7,0.5-7.7l-2.2-1.4l1.8-1.9l0.5-2.4c0,0-4.6-4.2-6.1-3.7C101.9,94.7,100.6,94.2,100.3,96.5z"/>
	<path fill="#73915F" d="M100.3,96.5l8.6,14.7c0,0-5.4-1.3-6.4-3.3s-1-2-1-2s-4.3,0.2-4.7-0.7c-0.4-0.9-1.2-7.7,0.2-9.2L100.3,96.5z
		"/>
	<path fill="#5DAE4D" d="M88.4,182.4c0,0,0.6-2.3,2.7-2.4c2.2-0.1,6,4.8,6,4.8l-0.7,1.9l-1.4,0.8c0,0-0.7,1.7,0.2,2.1s1,0.4,1,0.4
		l0,7.3l-6.4-3.4c0,0-0.8-1.4-0.8-2.4l-3.4,0.1c0,0-2.2-4.8-1.3-6.9c0.9-2.1,0.5-2.1,1.9-1.9C87.7,182.9,88.4,182.4,88.4,182.4z"/>
	<path fill="#96C566" d="M85.3,182.6c0,0-0.8,0.6-1,2c-0.2,1.4,0.1,6.2,1.3,6.9c1.2,0.8,2.4-0.4,3.4-0.1l0.8,2.4l6.4,3.4l-7.8-14.8
		C88.4,182.4,85.6,183.2,85.3,182.6z"/>
	<path fill="#4C6D32" d="M109.9,183c0,0,1.9-0.6,2.6-0.4s1.2,6.3,0.3,7.2c-0.9,0.8-3.6,0.6-3.6,0.6l-0.8,1.6c0,0-4.4,3.3-4.9,2.7
		c-0.5-0.6-0.6-5.9-0.6-5.9l1.7-1.1l-1.4-1.5l-0.4-1.9c0,0,3.5-3.4,4.7-3S109.7,181.2,109.9,183z"/>
	<path fill="#73915F" d="M109.9,183l-6.4,11.6c0,0,4.2-1.1,4.9-2.7c0.8-1.6,0.8-1.6,0.8-1.6s3.3,0.1,3.6-0.6c0.3-0.7,0.8-6-0.3-7.2
		L109.9,183z"/>
	<path fill="#5DAE4D" d="M122.9,66.4c0,0,1.9-0.8,3.2,0.6c1.2,1.4-0.2,6.7-0.2,6.7l-1.7,0.5l-1.3-0.5c0,0-1.6,0.4-1.3,1.3
		s0.3,0.9,0.3,0.9l-5.1,3.9l-1-6.3c0,0,0.5-1.3,1.3-1.8l-1.9-2.3c0,0,2.2-4.1,4.2-4.6c2-0.5,1.7-0.8,2.3,0.4
		C122.2,66.2,122.9,66.4,122.9,66.4z"/>
	<path fill="#96C566" d="M121.2,64.3c0,0-0.8-0.2-1.9,0.3c-1.1,0.6-4.3,3.4-4.2,4.6s1.5,1.5,1.9,2.3l-1.3,1.8l1,6.3l6.2-13.3
		C122.9,66.4,120.9,64.9,121.2,64.3z"/>
	<path fill="#5DAE4D" d="M131,57.6c0,0-2.7-1.2-4.4,0.9c-1.8,2,0.2,9.4,0.2,9.4l2.4,0.7l1.8-0.8c0,0,2.2,0.6,1.8,1.8
		c-0.4,1.2-0.4,1.2-0.4,1.2l7.2,5.4l1.5-8.8c0,0-0.8-1.8-1.8-2.6l2.7-3.3c0,0-3.1-5.7-5.9-6.4s-2.4-1.1-3.3,0.5
		C132,57.3,131,57.6,131,57.6z"/>
	<path fill="#96C566" d="M133.5,54.7c0,0,1.2-0.3,2.7,0.5c1.5,0.8,6,4.7,5.9,6.4c-0.1,1.7-2.1,2-2.7,3.3l1.8,2.6l-1.5,8.8L131,57.6
		C131,57.6,133.9,55.5,133.5,54.7z"/>
	<path fill="#5DAE4D" d="M135.1,34.9c0,0-3.2-1.4-5.2,1c-2.1,2.4,0.3,11.1,0.3,11.1l2.8,0.9l2.2-0.9c0,0,2.6,0.7,2.2,2.1
		s-0.4,1.4-0.4,1.4l8.5,6.4l1.7-10.4c0,0-0.9-2.2-2.1-3l3.1-3.8c0,0-3.7-6.8-6.9-7.6c-3.2-0.8-2.9-1.3-3.9,0.6
		C136.2,34.5,135.1,34.9,135.1,34.9z"/>
	<path fill="#96C566" d="M138,31.5c0,0,1.4-0.4,3.2,0.6c1.8,0.9,7.1,5.6,6.9,7.6c-0.2,2-2.5,2.4-3.1,3.8l2.1,3l-1.7,10.4l-10.3-22
		C135.1,34.9,138.4,32.4,138,31.5z"/>
	<path fill="#4C6D32" d="M119.6,93.6c0,0,1.1-1.4,1.7-1.6c0.6-0.2,4.1,4.2,3.8,5.2c-0.3,1.1-2.4,2.3-2.4,2.3l0.2,1.6
		c0,0-1.7,4.7-2.4,4.5c-0.7-0.2-3.4-4.2-3.4-4.2l0.7-1.7l-1.8-0.4l-1.2-1.2c0,0,1-4.3,2.1-4.6C117.9,93.2,118.5,92.3,119.6,93.6z"/>
	<path fill="#73915F" d="M119.6,93.6l0.9,11.9c0,0,2.6-2.9,2.4-4.5c-0.2-1.6-0.2-1.6-0.2-1.6s2.6-1.6,2.4-2.3
		c-0.1-0.7-2.4-4.9-3.8-5.2L119.6,93.6z"/>
</g>
</svg>
