<?xml version="1.0" encoding="utf-8"?>
<!-- Generator: Adobe Illustrator 18.0.0, SVG Export Plug-In . SVG Version: 6.00 Build 0)  -->
<!DOCTYPE svg PUBLIC "-//W3C//DTD SVG 1.1//EN" "http://www.w3.org/Graphics/SVG/1.1/DTD/svg11.dtd">
<svg version="1.1" xmlns="http://www.w3.org/2000/svg" xmlns:xlink="http://www.w3.org/1999/xlink" x="0px" y="0px"
	 viewBox="0 0 360 360" enable-background="new 0 0 360 360" xml:space="preserve">
<g id="pot">
	<polygon fill="#6A3023" points="189.3,12.5 168.9,34.5 149.8,270.9 158.5,270.9 177.1,35.6 189.3,21 198.7,35.3 199.7,270.9 
		210,270.9 205.1,35.5 	"/>
	<polygon fill="#6A3023" points="186.1,24.8 176.2,272.3 182.1,272.8 191.3,24 189.3,21 	"/>
	<polygon fill="#6A3023" points="175.8,47.4 198.7,47.4 198.8,52.8 175.8,51.9 	"/>
	<polygon fill="#6A3023" points="173.2,84.7 172.7,91.1 198.9,91.7 198.9,85.5 	"/>
	<polygon fill="#6A3023" points="169.9,118.2 169.9,126.2 199.1,126.9 199.7,119.2 	"/>
	<polygon fill="#6A3023" points="167.8,153.3 167,161 199.2,162.2 199.2,155.7 	"/>
	<polygon fill="#6A3023" points="163.8,204.1 163.1,212.7 199.7,214.6 199.7,205.5 	"/>
	<polygon fill="#6A3023" points="161.4,232.2 160.9,241.2 200.1,243.9 200.1,235.6 	"/>
	<polygon fill="#6A3023" points="165.8,178.2 164.8,183.3 199.2,186.6 199.2,180.8 	"/>
	<polygon fill="#2F2D2C" points="119.3,268.8 120.5,293.2 240.7,293.2 226.1,265 	"/>
	<polygon fill="#828181" points="120.5,293.2 129.4,354.5 220.4,353.6 236.1,293.2 	"/>
	<polygon fill="#676666" points="220.4,293.2 209.8,353.7 222.8,353.7 240.7,293.2 	"/>
</g>
<g id="vine">
	<path fill="none" stroke="#7ABA43" stroke-miterlimit="10" d="M116.8,211.1c0,0,7.8,3.4,11.5,8.2"/>
	<path fill="none" stroke="#7ABA43" stroke-miterlimit="10" d="M124.1,209.4c0,0,2.6,5.7,5.3,7.9"/>
	<path fill="none" stroke="#73915F" stroke-miterlimit="10" d="M164.7,270.8c0,0,6.2-7.8-6.2-7.1c0,0-24.7,16.2-32.2,15.9
		c-7.5-0.3-23.1,0-23.1,0"/>
	<path fill="none" stroke="#73915F" stroke-miterlimit="10" d="M176.7,271.2c0.4-10.5,4.7-11.7,4.7-11.7s2.9-2.4,31.9,12.2
		c0,0,3,4.7,5.4-0.9c2.4-5.6,1.5-5.7,1.5-5.7"/>
	<path fill="none" stroke="#73915F" stroke-miterlimit="10" d="M195,255.1v8.5c0,0-2.7,0.6-4.7,6.1"/>
	<path fill="none" stroke="#73915F" stroke-miterlimit="10" d="M180.9,257c0,0,2.4,8,5.5,12s14.2,28.8,26.4,23.5"/>
	<path fill="none" stroke="#73915F" stroke-miterlimit="10" d="M199.7,284.6c0,0,5,0.2,6.4,5.5c1.4,5.3,0,2.5,0,2.5"/>
	<path fill="none" stroke="#73915F" stroke-miterlimit="10" d="M215.9,230.5c0,0,17.3-3.9,20.7-18c3.4-14.1,1.7-17.4,1.7-17.4"/>
	<path fill="none" stroke="#73915F" stroke-miterlimit="10" d="M222.7,218.7c0,0,1.2,5.7-6.8,11.8"/>
	<path fill="none" stroke="#7ABA43" stroke-miterlimit="10" d="M162.5,254.5c0,0,8.2-18,15.9-21.8"/>
	<path fill="none" stroke="#5D714F" stroke-miterlimit="10" d="M166.2,262.4c0,0,2.5,2.9,3.5,5.2"/>
	<path fill="none" stroke="#73915F" stroke-miterlimit="10" d="M129.4,263.6c0,0,1.5,3.7,4,6.1c2.5,2.4,0,8,0,8"/>
	<path fill="none" stroke="#7ABA43" stroke-miterlimit="10" d="M131.9,268.8c0,0-3.3,8.8-10.2,10.8"/>
	<path fill="none" stroke="#73915F" stroke-miterlimit="10" d="M161.9,263.7c0,0-7.4-21.4-17.2-24.2c0,0-12.4,23.5-2.5,33.9"/>
	<path fill="none" stroke="#73915F" stroke-miterlimit="10" d="M144.6,239.5c0,0,1.7-27,9.5-27.3"/>
	<path fill="none" stroke="#73915F" stroke-miterlimit="10" d="M129.4,228.3c0,0-7.9-7.9-4.4-13.4c3.5-5.5,7.6-7.7,7.6-7.7
		s20.1-14,22.9-9.2c2.7,4.8-11.6,15.3-11.6,15.3"/>
	<path fill="none" stroke="#73915F" stroke-miterlimit="10" d="M148.3,203.3c0,0,6.5-7.1,7.4-10.2"/>
	<path fill="none" stroke="#73915F" stroke-miterlimit="10" d="M142.5,191.7c0,0,6.6-8.9,11.8-9.1c5.2-0.2,0-6.2,0-6.2
		s0.6-9.5,3.1-8.9"/>
	<path fill="none" stroke="#73915F" stroke-miterlimit="10" d="M141,191.7c0,0,0.6-15.3,10.6-22.7s6.4-23.4,6.4-23.4
		s-1.9-4.8-7.3-6.2"/>
	<path fill="none" stroke="#73915F" stroke-miterlimit="10" d="M161.2,212.2c0,0,7.4-2.8,11-8.2c3.7-5.4-1.7-10.1-1.7-10.1
		s-0.9-1.1-2.5,1.2c-1.6,2.3,2.4,3.1,2.4,3.1s9.3-7.6,6-19.5c-3.4-11.9-11.2-12-11.2-12"/>
	<path fill="none" stroke="#7ABA43" stroke-miterlimit="10" d="M161.2,128.4c0,0-6.1-25,0-31c6.1-6,13.9-19.3,13.8-22
		c-0.1-2.7,9.2-21.1,11.2-20.5"/>
	<path fill="none" stroke="#7ABA43" stroke-miterlimit="10" d="M161.2,97.4c0,0,0-9.2-3.9-12.7"/>
	<path fill="none" stroke="#7ABA43" stroke-miterlimit="10" d="M177.1,181.9c0,0,12.3-69.3,12.2-74.8c-0.1-5.5,5.7-23.6,9.4-21.3"/>
	<path fill="none" stroke="#7ABA43" stroke-miterlimit="10" d="M187.1,122.8c0,0,3-8,6.1-7.1"/>
</g>
<g id="leaves">
	<path fill="#5DAE4D" d="M165.9,267.4c0,0-0.6-4-4.4-4.6c-3.7-0.5-11.1,7.3-11.1,7.3l0.9,3.4l2.3,1.6c0,0,1,3-0.7,3.5
		c-1.7,0.5-1.7,0.5-1.7,0.5l-1.1,12.6l11.7-4.9c0,0,1.6-2.3,1.7-4l5.9,0.7c0,0,4.5-7.9,3.3-11.7s-0.5-3.7-3.1-3.5
		C167.1,268.3,165.9,267.4,165.9,267.4z"/>
	<path fill="#96C566" d="M171.3,268.1c0,0,1.3,1.2,1.4,3.5c0.2,2.3-1.1,10.6-3.3,11.7c-2.2,1.1-4-0.9-5.9-0.7l-1.7,4l-11.7,4.9
		l15.8-24.2C165.9,267.4,170.6,269.2,171.3,268.1z"/>
	<path fill="#4C6D32" d="M185,265.3c0,0,0.3,1.6,0.6,2c0.4,0.5,5.1-1.4,5.3-2.4c0.3-0.9-0.9-2.9-0.9-2.9l0.9-1.1
		c0,0,0.8-4.4,0.2-4.6s-4.5,1.8-4.5,1.8l-0.2,1.6l-1.6-0.5l-1.5,0.4c0,0-1.2,3.8-0.5,4.5C183.5,264.9,183.6,265.8,185,265.3z"/>
	<path fill="#73915F" d="M185,265.3l6.1-8.9c0,0,0.7,3.4-0.2,4.6c-0.9,1.1-0.9,1.1-0.9,1.1s1.3,2.4,0.9,2.9
		c-0.4,0.5-4.1,2.8-5.3,2.4L185,265.3z"/>
	<path fill="#5DAE4D" d="M144.2,202.1c0,0,3-2.7,6.1-0.8c3.1,1.8,3.8,12.2,3.8,12.2l-2.8,2l-2.7-0.2c0,0-2.6,1.7-1.6,3.1
		c1,1.4,1,1.4,1,1.4l-7,10.1l-5.7-10.8c0,0,0.2-2.7,1.2-4.1l-4.8-3c0,0,1.5-8.7,4.8-10.8c3.2-2.1,2.6-2.4,4.5-0.8
		C142.8,202.1,144.2,202.1,144.2,202.1z"/>
	<path fill="#96C566" d="M139.8,199.4c0,0-1.7,0.1-3.2,1.8s-5.7,8.7-4.8,10.8s3.6,1.7,4.8,3l-1.2,4.1l5.7,10.8l3.1-27.8
		C144.2,202.1,139.6,200.7,139.8,199.4z"/>
	<path fill="#4C6D32" d="M98.5,276.6c0,0-4.8,2.6-6.8,2.7c-2,0-7-16.7-5.1-19.4s9.6-3.8,9.6-3.8l1.2-4.7c0,0,10.1-11.5,11.9-10.2
		s5,15.9,5,15.9l-4,4.1l4.8,3.2l2.2,4.9c0,0-7.7,11.3-11.1,10.9C102.8,279.7,100.2,281.5,98.5,276.6z"/>
	<path fill="#73915F" d="M98.5,276.6l10.8-35.5c0,0-10.7,5.5-11.9,10.2s-1.2,4.7-1.2,4.7s-9.2,1.7-9.6,3.8c-0.4,2,1.3,16.9,5.1,19.4
		L98.5,276.6z"/>
	<path fill="#5DAE4D" d="M159.8,122.8c0,0,2.6-3.2,0.6-6.4c-2-3.2-12.9-3.4-12.9-3.4l-1.9,3l0.3,2.8c0,0-1.6,2.8-3.1,1.8
		c-1.5-1-1.5-1-1.5-1l-10.2,7.7l11.4,5.4c0,0,2.8-0.3,4.2-1.4l3.4,4.9c0,0,9-2,11-5.4c2-3.5,2.4-2.9,0.6-4.7
		C159.9,124.2,159.8,122.8,159.8,122.8z"/>
	<path fill="#96C566" d="M162.8,127.3c0,0,0,1.7-1.7,3.4c-1.7,1.7-8.7,6.3-11,5.4c-2.3-0.9-1.9-3.6-3.4-4.9l-4.2,1.4l-11.4-5.4
		l28.7-4.5C159.8,122.8,161.5,127.5,162.8,127.3z"/>
	<path fill="#4C6D32" d="M192.9,239.1c0,0-1.1-4.9-0.6-6.6c0.5-1.8,16.5-1.9,18.4,0.5c1.9,2.4,0.8,9.4,0.8,9.4l3.9,2.2
		c0,0,7.5,11.9,5.9,13.1S206,258,206,258l-2.6-4.5l-4,3.4l-4.9,0.7c0,0-8-9.7-6.7-12.6C189,242.1,188.1,239.3,192.9,239.1z"/>
	<path fill="#73915F" d="M192.9,239.1l28.5,18.6c0,0-2.1-10.8-5.9-13.1c-3.9-2.2-3.9-2.2-3.9-2.2s0.8-8.5-0.8-9.4
		c-1.7-0.9-15.2-3.2-18.4-0.5L192.9,239.1z"/>
	<path fill="#5DAE4D" d="M146.9,174.2c0,0,0.7-2.9,3.4-3.1c2.7-0.2,7.6,5.9,7.6,5.9l-0.8,2.4l-1.7,1.1c0,0-0.9,2.2,0.3,2.6
		s1.2,0.4,1.2,0.4l0.1,9.2l-8.1-4.1c0,0-1.1-1.7-1-3l-4.3,0.2c0,0-2.8-6-1.8-8.7s0.6-2.6,2.4-2.4
		C146.1,174.8,146.9,174.2,146.9,174.2z"/>
	<path fill="#96C566" d="M143,174.5c0,0-1,0.8-1.2,2.5c-0.2,1.7,0.3,7.8,1.8,8.7c1.5,0.9,2.9-0.5,4.3-0.2l1,3l8.1,4.1l-10.1-18.4
		C146.9,174.2,143.5,175.3,143,174.5z"/>
	<path fill="#4C6D32" d="M145.5,232.4c0,0-0.9-3-0.6-4.1c0.2-1.1,10.2-1.8,11.5-0.4s0.9,5.8,0.9,5.8l2.5,1.3c0,0,5.1,7.1,4.2,7.9
		s-9.5,0.8-9.5,0.8l-1.8-2.7l-2.4,2.3l-3,0.6c0,0-5.3-5.7-4.7-7.6C143.3,234.4,142.6,232.7,145.5,232.4z"/>
	<path fill="#73915F" d="M145.5,232.4L164,243c0,0-1.7-6.7-4.2-7.9c-2.5-1.3-2.5-1.3-2.5-1.3s0.2-5.4-0.9-5.8
		c-1.1-0.5-9.6-1.4-11.5,0.4L145.5,232.4z"/>
	<path fill="#5DAE4D" d="M202.7,267.9c0,0,0.8-5.2,5.5-5.9c4.7-0.7,14.1,9.3,14.1,9.3l-1.2,4.3l-2.9,2.1c0,0-1.2,3.9,0.9,4.5
		c2.2,0.6,2.2,0.6,2.2,0.6l1.4,16.1l-14.8-6.2c0,0-2.1-2.9-2.2-5.2l-7.5,0.9c0,0-5.7-10.2-4.2-15c1.5-4.8,0.6-4.7,3.9-4.5
		C201.3,269,202.7,267.9,202.7,267.9z"/>
	<path fill="#96C566" d="M195.9,268.8c0,0-1.6,1.5-1.8,4.5c-0.2,3,1.4,13.6,4.2,15s5.1-1.3,7.5-0.9l2.2,5.2l14.8,6.2l-20-31
		C202.7,267.9,196.8,270.2,195.9,268.8z"/>
	<path fill="#BDD036" d="M172.9,281.8c0,0-2.9,2.2-5.8,7.2c-2.9,5,2.1-0.9-2.4,3.4c-4.4,4.3,9.1-4.6,12-4.1
		C179.6,288.8,172.9,281.8,172.9,281.8"/>
	<path fill="#4C6D32" d="M191.8,279.6c0,0,4.5-0.1,5.9,0.6c1.5,0.7-1,14.7-3.5,16.1s-8.4-0.8-8.4-0.8l-2.6,3c0,0-11.6,4.7-12.4,3
		c-0.8-1.6,2.3-13.5,2.3-13.5l4.4-1.5l-2.3-4.1l0.2-4.4c0,0,9.8-5.4,12.1-3.8C189.9,275.8,192.4,275.5,191.8,279.6z"/>
	<path fill="#73915F" d="M191.8,279.6l-21,21.9c0,0,9.8,0,12.4-3s2.6-3,2.6-3s7.3,2.1,8.4,0.8c1.1-1.3,5.3-12.8,3.5-16.1
		L191.8,279.6z"/>
	<path fill="#5DAE4D" d="M89.7,265.7c0,0,4.6-2,7.6,1.4c3,3.4-0.3,16.1-0.3,16.1l-4.1,1.3l-3.1-1.3c0,0-3.8,1-3.1,3s0.6,2,0.6,2
		l-12.3,9.3l-2.5-15.1c0,0,1.3-3.1,3.1-4.4l-4.5-5.5c0,0,5.3-9.8,10-11c4.7-1.2,4.1-1.9,5.6,0.9C88,265.1,89.7,265.7,89.7,265.7z"/>
	<path fill="#96C566" d="M85.5,260.7c0,0-2-0.5-4.6,0.8s-10.2,8-10,11c0.3,2.9,3.6,3.5,4.5,5.5l-3.1,4.4l2.5,15.1l14.8-31.8
		C89.7,265.7,84.8,262.1,85.5,260.7z"/>
	<path fill="#5DAE4D" d="M104.4,279.7c0,0,3.4,0.5,4,3.6c0.5,3.1-6,9.4-6,9.4l-2.9-0.7l-1.4-1.9c0,0-2.6-0.8-2.9,0.7
		c-0.4,1.4-0.4,1.4-0.4,1.4l-10.6,1l4-9.8c0,0,1.9-1.4,3.4-1.5l-0.7-4.9c0,0,6.6-3.9,9.9-2.9c3.2,1,3.1,0.4,3,2.5
		C103.6,278.8,104.4,279.7,104.4,279.7z"/>
	<path fill="#96C566" d="M103.7,275.2c0,0-1-1-3-1.2s-8.9,1.1-9.9,2.9s0.9,3.4,0.7,4.9l-3.4,1.5l-4,9.8l20.2-13.5
		C104.4,279.7,102.8,275.8,103.7,275.2z"/>
	<path fill="#4C6D32" d="M127.5,280.1c0,0,1.9-2.5,3-2.9c1-0.5,7.4,7.2,7,9.1s-4.2,4.1-4.2,4.1l0.4,2.8c0,0-2.7,8.3-4,8
		c-1.2-0.3-6.2-7.3-6.2-7.3l1.2-3l-3.2-0.6l-2.3-2.1c0,0,1.5-7.7,3.4-8.2C124.6,279.4,125.5,277.9,127.5,280.1z"/>
	<path fill="#73915F" d="M127.5,280.1l2.3,21.1c0,0,4.4-5.3,4-8c-0.4-2.8-0.4-2.8-0.4-2.8s4.4-3,4.2-4.1s-4.5-8.6-7-9.1L127.5,280.1
		z"/>
	<path fill="#88B12B" d="M175.7,269.7c0,0-3.6-3.9-12.7-1.1l8.1,1.9c0,0,0.2,13.5,5.5,17.8s8.6-11.3,9.5-13.2c1-1.9,5-1.2,5-1.2
		l0.9,1.2c0,0,0.8-3.2-1-5.5c-1.7-2.3-8.8-1.4-12.1,0.6S175.7,269.7,175.7,269.7z"/>
	<path fill="#BDD036" d="M176.7,271.1l2.1,17.9c0,0-6,1.3-7.6-18.5l-8.1-1.9C163,268.6,173.2,264.9,176.7,271.1z"/>
	<path fill="#5DAE4D" d="M177.9,232.3c0,0-3.7-1.4-3.5-5c0.2-3.6,9.1-9,9.1-9l3,1.5l1.1,2.5c0,0,2.7,1.5,3.5,0
		c0.8-1.5,0.8-1.5,0.8-1.5l12.2,1.5l-6.9,10c0,0-2.5,1.1-4.2,0.8l-0.5,5.7c0,0-8.4,2.7-11.8,0.7c-3.4-1.9-3.4-1.2-2.7-3.6
		C178.5,233.5,177.9,232.3,177.9,232.3z"/>
	<path fill="#96C566" d="M177.5,237.4c0,0,0.9,1.4,3.1,2.1c2.2,0.6,10.3,1.1,11.8-0.7c1.5-1.8-0.1-4,0.5-5.7l4.2-0.8l6.9-10
		l-26.1,10C177.9,232.3,178.7,237,177.5,237.4z"/>
	<path fill="#5DAE4D" d="M194.9,257.6c0,0-3,0.4-4.2-2.1c-1.2-2.5,2.8-9.5,2.8-9.5l2.6-0.1l1.6,1.3c0,0,2.4,0,2.3-1.3
		c0-1.3,0-1.3,0-1.3l8.8-3.5l-1,9.3c0,0-1.3,1.6-2.5,2.1l1.8,4c0,0-4.7,4.9-7.7,4.9c-3-0.1-2.7,0.4-3.2-1.4
		C195.8,258.2,194.9,257.6,194.9,257.6z"/>
	<path fill="#96C566" d="M196.6,261.2c0,0,1.1,0.6,2.8,0.3c1.7-0.4,7.4-3.1,7.7-4.9c0.3-1.8-1.6-2.6-1.8-4l2.5-2.1l1-9.3l-14,16.4
		C194.9,257.6,197.2,260.5,196.6,261.2z"/>
	<path fill="#5DAE4D" d="M144.5,239.5c0,0,2.9,0.5,3.2,3.2c0.4,2.7-5.4,7.8-5.4,7.8l-2.4-0.7l-1.1-1.7c0,0-2.2-0.7-2.5,0.5
		c-0.4,1.2-0.4,1.2-0.4,1.2l-9.1,0.6l3.7-8.2c0,0,1.7-1.1,2.9-1.2l-0.4-4.2c0,0,5.8-3.1,8.5-2.1c2.7,0.9,2.6,0.4,2.5,2.2
		C143.9,238.6,144.5,239.5,144.5,239.5z"/>
	<path fill="#96C566" d="M144.1,235.6c0,0-0.8-0.9-2.5-1.1c-1.7-0.2-7.6,0.6-8.5,2.1c-0.8,1.5,0.6,2.9,0.4,4.2l-2.9,1.2l-3.7,8.2
		l17.6-10.8C144.5,239.5,143.3,236.1,144.1,235.6z"/>
	<path fill="#5DAE4D" d="M141.7,191.2c0,0,4.3,0.5,5,4.3c0.7,3.8-7.2,11.8-7.2,11.8l-3.6-0.8l-1.8-2.3c0,0-3.2-0.9-3.6,0.9
		s-0.4,1.8-0.4,1.8l-13.1,1.6l4.6-12.3c0,0,2.3-1.8,4.2-1.9l-1-6.1c0,0,8.1-5,12.1-3.9c4,1.1,3.9,0.4,3.8,3
		C140.8,190.1,141.7,191.2,141.7,191.2z"/>
	<path fill="#96C566" d="M140.7,185.7c0,0-1.3-1.3-3.7-1.3s-11.1,1.6-12.1,3.9c-1.1,2.3,1.2,4.1,1,6.1l-4.2,1.9l-4.6,12.3l24.7-17.3
		C141.7,191.2,139.6,186.5,140.7,185.7z"/>
	<path fill="#4C6D32" d="M128.2,225.8c0,0,3.4-0.1,4.6,0.4c1.1,0.5-0.7,11.4-2.6,12.4c-1.9,1-6.5-0.6-6.5-0.6l-2,2.3
		c0,0-8.9,3.7-9.6,2.4c-0.6-1.2,1.7-10.4,1.7-10.4l3.4-1.2l-1.8-3.1l0.2-3.4c0,0,7.5-4.2,9.3-3C126.6,222.8,128.6,222.6,128.2,225.8
		z"/>
	<path fill="#73915F" d="M128.2,225.8l-16,17c0,0,7.6-0.1,9.6-2.4c2-2.3,2-2.3,2-2.3s5.7,1.6,6.5,0.6s4-9.9,2.6-12.4L128.2,225.8z"
		/>
	<path fill="#5DAE4D" d="M128.6,225.6c0,0-4.2-2-3.7-6.2c0.6-4.2,11.5-9.8,11.5-9.8l3.4,2.1l1,3c0,0,3,2,4.1,0.3c1-1.7,1-1.7,1-1.7
		l14.2,2.9l-9.1,11.1c0,0-3,1-5,0.6l-1.1,6.6c0,0-10.2,2.4-13.9-0.2c-3.8-2.5-3.9-1.7-2.9-4.5C129.2,227.1,128.6,225.6,128.6,225.6z
		"/>
	<path fill="#96C566" d="M127.7,231.6c0,0,0.9,1.8,3.4,2.7s12,2.2,13.9,0.2s0.2-4.7,1.1-6.6l5-0.6l9.1-11.1l-31.6,9.4
		C128.6,225.6,129.1,231.2,127.7,231.6z"/>
	<path fill="#5DAE4D" d="M166.5,248c0,0,2.4-1.9,4.8-0.4s2.4,9.7,2.4,9.7l-2.2,1.4l-2.1-0.3c0,0-2.1,1.2-1.4,2.3
		c0.7,1.1,0.7,1.1,0.7,1.1l-5.9,7.6l-3.9-8.7c0,0,0.3-2.1,1.1-3.1l-3.6-2.6c0,0,1.6-6.7,4.2-8.2c2.6-1.5,2.2-1.8,3.5-0.4
		S166.5,248,166.5,248z"/>
	<path fill="#96C566" d="M163.1,245.7c0,0-1.3,0-2.6,1.2c-1.3,1.2-4.8,6.5-4.2,8.2c0.6,1.7,2.7,1.5,3.6,2.6l-1.1,3.1l3.9,8.7
		l3.7-21.5C166.5,248,162.9,246.7,163.1,245.7z"/>
	<path fill="#5DAE4D" d="M220.3,263.8c0,0-4.2-1.6-3.9-5.7c0.2-4.1,10.3-10.1,10.3-10.1l3.4,1.8l1.2,2.8c0,0,3,1.7,3.9,0
		s0.9-1.7,0.9-1.7l13.7,1.8l-7.9,11.2c0,0-2.8,1.2-4.7,0.9l-0.6,6.4c0,0-9.5,2.9-13.3,0.8c-3.8-2.2-3.8-1.4-3.1-4.1
		C221,265.2,220.3,263.8,220.3,263.8z"/>
	<path fill="#96C566" d="M219.9,269.7c0,0,1,1.6,3.4,2.3c2.5,0.7,11.6,1.3,13.3-0.8c1.7-2-0.1-4.5,0.6-6.4l4.7-0.9l7.9-11.2
		l-29.4,11.1C220.3,263.8,221.2,269.2,219.9,269.7z"/>
	<path fill="#5DAE4D" d="M222.7,290.5c0,0,3-2.6,6.1-0.8c3.1,1.9,3.7,12.3,3.7,12.3l-2.8,2l-2.7-0.2c0,0-2.6,1.7-1.6,3
		c1,1.4,1,1.4,1,1.4l-7,10.1l-5.6-10.8c0,0,0.2-2.7,1.2-4.1l-4.8-3.1c0,0,1.6-8.7,4.9-10.8c3.3-2.1,2.7-2.4,4.5-0.7
		C221.3,290.5,222.7,290.5,222.7,290.5z"/>
	<path fill="#96C566" d="M218.2,287.8c0,0-1.7,0.1-3.2,1.7s-5.8,8.6-4.9,10.8c0.9,2.2,3.6,1.7,4.8,3.1l-1.2,4.1l5.6,10.8l3.4-27.8
		C222.7,290.5,218.1,289,218.2,287.8z"/>
	<path fill="#4C6D32" d="M132.1,269c0,0-2.5,0.6-3.4,0.4c-0.9-0.2-1.3-8.3-0.1-9.4c1.2-1,4.8-0.6,4.8-0.6l1.1-2c0,0,5.9-4.1,6.5-3.3
		s0.4,7.8,0.4,7.8l-2.3,1.4l1.8,2l0.4,2.5c0,0-4.8,4.2-6.3,3.7C133.7,270.9,132.3,271.4,132.1,269z"/>
	<path fill="#73915F" d="M132.1,269l9-14.8c0,0-5.5,1.2-6.5,3.3c-1.1,2-1.1,2-1.1,2s-4.4-0.3-4.8,0.6c-0.4,0.9-1.3,7.8,0.1,9.4
		L132.1,269z"/>
	<path fill="#5DAE4D" d="M181.1,257.2c0,0,0.5,1.8-0.9,2.7c-1.4,0.9-5.9-1-5.9-1l-0.2-1.6l0.6-1.1c0,0-0.2-1.4-0.9-1.3
		c-0.8,0.1-0.8,0.1-0.8,0.1l-2.8-5l5.7-0.1c0,0,1.1,0.6,1.5,1.4l2.3-1.4c0,0,3.3,2.5,3.5,4.3c0.2,1.8,0.5,1.6-0.6,2
		S181.1,257.2,181.1,257.2z"/>
	<path fill="#96C566" d="M183.1,255.9c0,0,0.3-0.7-0.1-1.7s-2.4-4.2-3.5-4.3c-1.1-0.1-1.5,1.1-2.3,1.4l-1.5-1.4l-5.7,0.1l11,7.1
		C181.1,257.2,182.7,255.6,183.1,255.9z"/>
	<path fill="#4C6D32" d="M152.7,196.7c0,0-1.8-1.1-2.2-1.7c-0.4-0.7,4.2-5.6,5.5-5.5c1.3,0.1,3.1,2.5,3.1,2.5l1.8-0.5
		c0,0,5.8,1.1,5.7,2c-0.1,0.8-4.4,4.7-4.4,4.7l-2.1-0.5l-0.1,2.2l-1.2,1.7c0,0-5.3-0.4-5.8-1.6C152.5,198.7,151.4,198.2,152.7,196.7
		z"/>
	<path fill="#73915F" d="M152.7,196.7l13.9-3.3c0,0-3.9-2.5-5.7-2c-1.8,0.5-1.8,0.5-1.8,0.5s-2.4-2.7-3.1-2.5
		c-0.8,0.2-5.4,3.7-5.5,5.5L152.7,196.7z"/>
	<path fill="#5DAE4D" d="M152.4,206.7c0,0-0.6-2,0.9-3c1.5-1.1,6.6,0.9,6.6,0.9l0.3,1.7l-0.7,1.2c0,0,0.2,1.6,1.1,1.4
		c0.9-0.2,0.9-0.2,0.9-0.2l3.2,5.5l-6.3,0.3c0,0-1.2-0.7-1.7-1.5l-2.5,1.6c0,0-3.8-2.6-4-4.6c-0.3-2-0.6-1.8,0.6-2.3
		C152.1,207.3,152.4,206.7,152.4,206.7z"/>
	<path fill="#96C566" d="M150.2,208.2c0,0-0.3,0.8,0.1,1.9c0.4,1.1,2.8,4.6,4,4.6c1.2,0,1.6-1.3,2.5-1.6l1.7,1.5l6.3-0.3l-12.3-7.5
		C152.4,206.7,150.7,208.5,150.2,208.2z"/>
	<path fill="#5DAE4D" d="M176.2,182.2c0,0-2.5-1.1-4.1,0.8c-1.6,1.9,0.2,8.8,0.2,8.8l2.2,0.7l1.7-0.7c0,0,2,0.5,1.7,1.6
		s-0.3,1.1-0.3,1.1l6.7,5.1l1.3-8.2c0,0-0.7-1.7-1.7-2.4l2.5-3c0,0-2.9-5.3-5.4-6s-2.2-1-3.1,0.5
		C177.1,181.9,176.2,182.2,176.2,182.2z"/>
	<path fill="#96C566" d="M178.5,179.5c0,0,1.1-0.3,2.5,0.4s5.6,4.4,5.4,6s-2,1.9-2.5,3l1.7,2.4l-1.3,8.2l-8.1-17.3
		C176.2,182.2,178.9,180.3,178.5,179.5z"/>
	<path fill="#4C6D32" d="M146.8,172.9c0,0,1.2-2.4,1.1-3.4c0-1-8.5-3-9.8-1.9c-1.3,1-1.6,4.9-1.6,4.9l-2.3,0.7c0,0-5.4,5.4-4.7,6.2
		s8.1,2,8.1,2l1.9-2.1l1.7,2.3l2.5,0.9c0,0,5.4-4.2,5.1-5.8C148.4,174.9,149.2,173.6,146.8,172.9z"/>
	<path fill="#73915F" d="M146.8,172.9l-17.2,6.5c0,0,2.4-5.5,4.7-6.2c2.3-0.7,2.3-0.7,2.3-0.7s0.6-4.6,1.6-4.9
		c1-0.3,8.4,0.1,9.8,1.9L146.8,172.9z"/>
	<path fill="#BDD036" d="M149.1,137.1l-0.4-4.7l1.1-2c0,0-6.2-0.9-6.3-1.8c-0.1-0.9-8.3,3.2-8.3,3.2s0.5,2.5,1.1,3.1
		c0.6,0.6-2.3-1.9-5.4,4.1c-3.2,6-0.8,11.4-0.8,11.4s4.9-9.3,19.1-9.7l4.9-2.7h4c0,0,0.3-3.6-2-3.8S149.1,137.1,149.1,137.1z"/>
	<path fill="#5DAE4D" d="M211.4,227.3c0,0,1.3-2.3,3.4-1.8c2.1,0.5,4.3,7,4.3,7l-1.3,1.9l-1.6,0.5c0,0-1.2,1.6-0.4,2.3
		c0.8,0.7,0.8,0.7,0.8,0.7l-2.4,7.9l-5.1-5.6c0,0-0.3-1.8,0-2.9l-3.3-0.9c0,0-0.5-5.9,1-7.9c1.6-2,1.1-2.1,2.5-1.4
		S211.4,227.3,211.4,227.3z"/>
	<path fill="#96C566" d="M208.4,226.6c0,0-1,0.4-1.6,1.8c-0.6,1.4-1.9,6.7-1,7.9s2.4,0.3,3.3,0.9l0,2.9l5.1,5.6l-2.8-18.4
		C211.4,227.3,208.5,227.4,208.4,226.6z"/>
	<path fill="#5DAE4D" d="M222.8,219c0,0-2.1,0.9-3.3-0.7c-1.2-1.5,1-7,1-7l1.9-0.5l1.3,0.6c0,0,1.7-0.4,1.5-1.3
		c-0.2-0.9-0.2-0.9-0.2-0.9l5.9-4l0.4,6.6c0,0-0.7,1.4-1.6,1.9l1.7,2.4c0,0-2.8,4.2-5,4.8c-2.1,0.5-1.9,0.8-2.5-0.4
		C223.5,219.3,222.8,219,222.8,219z"/>
	<path fill="#96C566" d="M224.4,221.2c0,0,0.9,0.2,2.1-0.3s5-3.5,5-4.8c0-1.3-1.4-1.5-1.7-2.4l1.6-1.9l-0.4-6.6l-8.2,13.8
		C222.8,219,224.8,220.6,224.4,221.2z"/>
	<path fill="#4C6D32" d="M239.2,198.6c0,0-3.7-0.5-4.8-1.3c-1.1-0.8,3-11.9,5.2-12.6c2.2-0.7,6.8,1.9,6.8,1.9l2.6-2.1
		c0,0,10.2-2.1,10.6-0.6c0.4,1.4-3.9,10.7-3.9,10.7l-3.8,0.6l1.3,3.7l-0.8,3.6c0,0-8.8,3-10.5,1.3S238.1,202,239.2,198.6z"/>
	<path fill="#73915F" d="M239.2,198.6l20.4-14.8c0,0-8.1-1.4-10.6,0.6c-2.6,2.1-2.6,2.1-2.6,2.1s-5.7-2.8-6.8-1.9s-6.2,9.7-5.2,12.6
		L239.2,198.6z"/>
	<path fill="#4C6D32" d="M229.9,224.1c0,0-2.8,0.1-3.7,0.7c-0.9,0.5,1.4,9.1,3,9.8s5.2-0.9,5.2-0.9l1.8,1.7c0,0,7.5,2.3,7.9,1.3
		c0.4-1-2.1-8.3-2.1-8.3l-2.8-0.7l1.2-2.7l-0.4-2.7c0,0-6.3-2.9-7.7-1.8C230.9,221.6,229.3,221.5,229.9,224.1z"/>
	<path fill="#73915F" d="M229.9,224.1l14.2,12.5c0,0-6.1,0.5-7.9-1.3c-1.8-1.7-1.8-1.7-1.8-1.7s-4.5,1.7-5.2,0.9
		c-0.7-0.8-3.9-7.7-3-9.8L229.9,224.1z"/>
	<path fill="#4C6D32" d="M157.5,84.4c0,0,1.3,3.1,1.2,4.4c-0.1,1.2-10.8,3.2-12.4,1.8c-1.6-1.4-1.7-6.2-1.7-6.2l-2.9-1
		c0,0-6.4-7-5.5-8c0.9-1,10.2-2,10.2-2l2.3,2.7l2.3-2.7l3.2-1c0,0,6.5,5.5,6,7.6S160.6,83.7,157.5,84.4z"/>
	<path fill="#73915F" d="M157.5,84.4l-21.2-9.1c0,0,2.7,7,5.5,8c2.9,1,2.9,1,2.9,1s0.5,5.8,1.7,6.2c1.2,0.4,10.5,0.3,12.4-1.8
		L157.5,84.4z"/>
	<path fill="#BDD036" d="M186.9,50.4c0,0-2.4-3.1-12.4,3.7c0,0-2.6,1.7,0.4,3.1c3,1.4,4.5,0,4.5,0l6.3-2.8c0,0,5.8,1.7,8.3,0.5
		c2.5-1.2,7.6-0.5,10.2,1.5l1.1-1l-3.3-5.8l1.7-1.7c0,0-0.6-6.1-13.6-3.4C189.9,44.5,187,48.3,186.9,50.4z"/>
	<path fill="#5DAE4D" d="M158.5,104.3c0,0,2.2,1.6,1.4,4c-0.8,2.3-7.7,4.2-7.7,4.2l-1.7-1.6l-0.2-1.8c0,0-1.5-1.5-2.3-0.7
		c-0.8,0.8-0.8,0.8-0.8,0.8l-7.7-3.3l6.5-5.2c0,0,1.8-0.2,2.9,0.3l1.4-3.6c0,0,6.1-0.1,7.9,1.8c1.8,1.9,2,1.5,1.1,2.9
		C158.4,103.4,158.5,104.3,158.5,104.3z"/>
	<path fill="#96C566" d="M159.8,101c0,0-0.3-1.1-1.6-1.9c-1.3-0.8-6.6-2.7-7.9-1.8s-0.7,2.6-1.4,3.6l-2.9-0.3l-6.5,5.2l19.1-1.6
		C158.5,104.3,158.9,101,159.8,101z"/>
	<path fill="#5DAE4D" d="M122.8,211.6c0,0,0.8,3.1-1.6,4.6s-10-1.7-10-1.7l-0.4-2.7l1.1-1.8c0,0-0.2-2.4-1.6-2.2s-1.3,0.2-1.3,0.2
		l-4.6-8.6l9.6-0.1c0,0,1.8,1.1,2.5,2.3l3.9-2.3c0,0,5.6,4.2,5.9,7.3c0.3,3,0.8,2.7-1.1,3.4C123.3,210.7,122.8,211.6,122.8,211.6z"
		/>
	<path fill="#96C566" d="M126.3,209.5c0,0,0.5-1.2-0.1-2.9c-0.6-1.7-4.1-7.1-5.9-7.3c-1.9-0.1-2.5,1.9-3.9,2.3l-2.5-2.3l-9.6,0.1
		l18.5,12.2C122.8,211.6,125.4,208.9,126.3,209.5z"/>
	<path fill="#4C6D32" d="M156.9,161.6c0,0-3.2-0.9-4.3-0.6c-1.2,0.3-1.8,10.7-0.3,12.1s6.1,0.9,6.1,0.9l1.3,2.6c0,0,7.5,5.3,8.4,4.3
		c0.9-1,0.7-10,0.7-10L166,169l2.3-2.5l0.6-3.2c0,0-6.1-5.5-8-4.8S157.2,158.5,156.9,161.6z"/>
	<path fill="#73915F" d="M156.9,161.6l11.2,19.2c0,0-7-1.7-8.4-4.3c-1.3-2.6-1.3-2.6-1.3-2.6s-5.6,0.3-6.1-0.9
		c-0.5-1.1-1.6-10,0.3-12.1L156.9,161.6z"/>
	<path fill="#5DAE4D" d="M141.3,273.9c0,0,0.8-3,3.6-3.2s7.8,6.3,7.8,6.3l-0.9,2.5l-1.8,1.1c0,0-0.9,2.2,0.3,2.7
		c1.2,0.5,1.2,0.5,1.2,0.5l-0.1,9.6l-8.4-4.5c0,0-1.1-1.8-1-3.2l-4.4,0.1c0,0-2.8-6.3-1.7-9.1c1.2-2.8,0.6-2.7,2.5-2.5
		C140.4,274.4,141.3,273.9,141.3,273.9z"/>
	<path fill="#96C566" d="M137.3,274.1c0,0-1,0.8-1.3,2.6c-0.3,1.8,0.1,8.1,1.7,9.1s3.1-0.5,4.4-0.1l1,3.2l8.4,4.5l-10.2-19.3
		C141.3,273.9,137.7,274.9,137.3,274.1z"/>
	<path fill="#4C6D32" d="M169.5,274.6c0,0,2.4-0.7,3.4-0.6c0.9,0.2,1.6,8.3,0.4,9.4c-1.2,1.1-4.8,0.8-4.8,0.8l-1,2.1
		c0,0-5.7,4.3-6.4,3.5c-0.7-0.8-0.7-7.8-0.7-7.8l2.2-1.5l-1.9-1.9l-0.5-2.5c0,0,4.6-4.4,6.1-3.9S169.2,272.2,169.5,274.6z"/>
	<path fill="#73915F" d="M169.5,274.6l-8.4,15.2c0,0,5.4-1.5,6.4-3.5c1-2.1,1-2.1,1-2.1s4.4,0.1,4.8-0.8s1-7.8-0.4-9.4L169.5,274.6z
		"/>
	<path fill="#5DAE4D" d="M186.5,122.3c0,0,2.5-1.1,4.1,0.8c1.6,1.9-0.2,8.8-0.2,8.8l-2.2,0.7l-1.7-0.7c0,0-2,0.5-1.7,1.6
		s0.3,1.1,0.3,1.1l-6.7,5.1l-1.3-8.2c0,0,0.7-1.7,1.7-2.4l-2.5-3c0,0,2.9-5.3,5.4-6c2.6-0.7,2.2-1,3.1,0.5
		C185.6,121.9,186.5,122.3,186.5,122.3z"/>
	<path fill="#96C566" d="M184.2,119.5c0,0-1.1-0.3-2.5,0.4c-1.4,0.7-5.6,4.4-5.4,6c0.1,1.6,2,1.9,2.5,3l-1.7,2.4l1.3,8.2l8.1-17.3
		C186.5,122.3,183.8,120.3,184.2,119.5z"/>
	<path fill="#5DAE4D" d="M197,110.8c0,0-3.5-1.5-5.8,1.1c-2.3,2.6,0.3,12.3,0.3,12.3l3.1,1l2.4-1c0,0,2.9,0.7,2.4,2.3
		c-0.5,1.6-0.5,1.6-0.5,1.6l9.4,7.1l1.9-11.6c0,0-1-2.4-2.4-3.4l3.5-4.2c0,0-4.1-7.5-7.7-8.4c-3.6-0.9-3.2-1.4-4.3,0.7
		C198.3,110.3,197,110.8,197,110.8z"/>
	<path fill="#96C566" d="M200.3,107c0,0,1.6-0.4,3.5,0.6c1.9,1,7.9,6.2,7.7,8.4c-0.2,2.3-2.8,2.7-3.5,4.2l2.4,3.4l-1.9,11.6
		L197,110.8C197,110.8,200.8,108.1,200.3,107z"/>
	<path fill="#5DAE4D" d="M202.3,81.1c0,0-4.2-1.8-6.9,1.3c-2.7,3.1,0.3,14.6,0.3,14.6l3.7,1.1l2.8-1.2c0,0,3.4,0.9,2.8,2.7
		c-0.6,1.8-0.6,1.8-0.6,1.8l11.1,8.4l2.2-13.6c0,0-1.2-2.8-2.8-4l4.1-5c0,0-4.8-8.8-9-9.9c-4.2-1.1-3.7-1.7-5.1,0.8
		S202.3,81.1,202.3,81.1z"/>
	<path fill="#96C566" d="M206.1,76.6c0,0,1.8-0.5,4.1,0.7c2.3,1.2,9.3,7.3,9,9.9s-3.3,3.1-4.1,5l2.8,4l-2.2,13.6l-13.4-28.8
		C202.3,81.1,206.7,77.9,206.1,76.6z"/>
	<path fill="#4C6D32" d="M182.1,157.8c0,0,1.5-1.8,2.3-2.1c0.8-0.3,5.3,5.5,5,6.8c-0.3,1.4-3.2,3-3.2,3l0.3,2c0,0-2.2,6.1-3.1,5.8
		c-0.9-0.2-4.4-5.5-4.4-5.5l0.9-2.2l-2.4-0.5l-1.6-1.6c0,0,1.3-5.6,2.7-6C179.9,157.2,180.6,156.1,182.1,157.8z"/>
	<path fill="#73915F" d="M182.1,157.8l1.2,15.6c0,0,3.4-3.8,3.1-5.8c-0.3-2-0.3-2-0.3-2s3.3-2.1,3.2-3c-0.1-0.9-3.1-6.4-5-6.8
		L182.1,157.8z"/>
</g>
</svg>
