<?xml version="1.0" encoding="utf-8"?>
<!-- Generator: Adobe Illustrator 18.0.0, SVG Export Plug-In . SVG Version: 6.00 Build 0)  -->
<!DOCTYPE svg PUBLIC "-//W3C//DTD SVG 1.1//EN" "http://www.w3.org/Graphics/SVG/1.1/DTD/svg11.dtd">
<svg version="1.1" xmlns="http://www.w3.org/2000/svg" xmlns:xlink="http://www.w3.org/1999/xlink" x="0px" y="0px"
	 viewBox="0 0 42.7 40.2" enable-background="new 0 0 42.7 40.2" xml:space="preserve">
<g id="shelf">
</g>
<g id="tools">
	<rect x="5.8" y="8.6" fill="#7B9D4B" width="16.7" height="19"/>
	<polygon fill="#FBFDF9" points="13.5,9.2 13.5,10.3 11.5,10.3 11.5,11.2 16.3,11.2 16.3,10.2 15,10.2 15,9.2 	"/>
	<path fill="#8FAA65" d="M10.5,14c0,0-2,0.2-2.4,2.3c-0.5,2.1,0,11.3,0,11.3h12.2V17.1c0,0,0.3-2.6-1.3-3.1S10.5,14,10.5,14z"/>
	<polygon fill="#45702E" points="11.5,16.3 12,20.5 13.9,21.1 13.9,23.1 13.9,24 12.2,24 12.2,22.8 10.9,22.5 10.9,24 11.5,24.9 
		16.9,24.9 17.9,23.1 17.9,21.4 16.3,23.7 15.2,23.9 15,20.6 16.3,20.6 17.2,19.6 16.3,16.3 15.6,17.9 14.4,17.9 14.4,16.3 
		13.2,17.9 	"/>
	<rect x="22.2" y="10.2" fill="#DC5236" width="6.8" height="17.4"/>
	<path fill="#EE7B64" d="M22.1,13.9c0,0,6.5,3.5,5.9,6.4s0,7.5,0,7.5h-6V13.9z"/>
	<polygon fill="#FDDEAE" points="22.5,18.1 24.3,19.7 24.3,22.2 22.5,22.9 	"/>
	<rect x="22.5" y="11.9" fill="#FDDEAE" width="1.9" height="0.9"/>
	<polygon fill="#FDDEAE" points="22.5,25.7 23.4,24.9 24.3,23.6 25.6,23.6 25.6,25.7 24,27.6 22.5,27.6 	"/>
	<rect x="29" y="11.9" fill="#288845" width="7.1" height="15.7"/>
	<rect x="29" y="13.9" fill="#71B67E" width="2.1" height="1.4"/>
	<rect x="29" y="18.1" fill="#71B67E" width="5" height="7.5"/>
	<rect x="1.5" y="27" fill="#FDEBB8" width="39.1" height="4.9"/>
</g>
<g id="gardening101">
</g>
</svg>
