<?xml version="1.0" encoding="utf-8"?>
<!-- Generator: Adobe Illustrator 18.0.0, SVG Export Plug-In . SVG Version: 6.00 Build 0)  -->
<!DOCTYPE svg PUBLIC "-//W3C//DTD SVG 1.1//EN" "http://www.w3.org/Graphics/SVG/1.1/DTD/svg11.dtd">
<svg version="1.1" xmlns="http://www.w3.org/2000/svg" xmlns:xlink="http://www.w3.org/1999/xlink" x="0px" y="0px"
	 viewBox="0 0 40.7 37.3" enable-background="new 0 0 40.7 37.3" xml:space="preserve">
<g id="shelf">
</g>
<g id="tools">
	<rect x="12.6" y="2.1" fill="#18937F" width="3.6" height="14.3"/>
	<polygon fill="#585A5D" points="13.8,16.4 13.8,23.2 9.9,23.2 10.6,34.7 11.4,34.7 11.9,25.5 13.2,25.5 13.8,35.2 14.4,35.2 
		14.8,25.8 16.7,25.8 16.7,35.2 17.6,35.2 18.5,23.4 15.4,23.6 15.2,16.4 	"/>
	<rect x="28.9" y="2" fill="#1A9782" width="3.5" height="14.3"/>
	<path fill="#585A5D" d="M30,16.2v3.6h-3.7c0,0,0.2,14.5,3.7,15.4c3.5,1,4.7-12.5,4.6-15.2l-3.1-0.1v-3.7H30z"/>
</g>
<g id="gardening101">
</g>
</svg>
