<?xml version="1.0" encoding="utf-8"?>
<!-- Generator: Adobe Illustrator 18.0.0, SVG Export Plug-In . SVG Version: 6.00 Build 0)  -->
<!DOCTYPE svg PUBLIC "-//W3C//DTD SVG 1.1//EN" "http://www.w3.org/Graphics/SVG/1.1/DTD/svg11.dtd">
<svg version="1.1" xmlns="http://www.w3.org/2000/svg" xmlns:xlink="http://www.w3.org/1999/xlink" x="0px" y="0px"
	 viewBox="0 0 216 216" enable-background="new 0 0 216 216" xml:space="preserve">
<g id="pot">
	<polygon fill="#6A3023" points="110.4,5.7 98.2,18.9 86.7,160.2 92,160.2 103.1,19.6 110.4,10.8 116,19.3 116.6,160.2 122.8,160.2 
		119.8,19.5 	"/>
	<polygon fill="#6A3023" points="108.5,13.1 102.6,161.1 106,161.4 111.5,12.6 110.4,10.8 	"/>
	<polygon fill="#6A3023" points="102.3,26.6 116,26.6 116,29.8 102.3,29.3 	"/>
	<polygon fill="#6A3023" points="100.8,48.9 100.5,52.7 116.1,53.1 116.1,49.4 	"/>
	<polygon fill="#6A3023" points="98.8,68.9 98.8,73.7 116.2,74.1 116.6,69.6 	"/>
	<polygon fill="#6A3023" points="97.5,89.9 97,94.5 116.3,95.2 116.3,91.4 	"/>
	<polygon fill="#6A3023" points="95.1,120.3 94.7,125.4 116.6,126.6 116.6,121.1 	"/>
	<polygon fill="#6A3023" points="93.7,137.1 93.4,142.5 116.8,144.1 116.8,139.1 	"/>
	<polygon fill="#6A3023" points="96.3,104.8 95.7,107.9 116.3,109.9 116.3,106.4 	"/>
	<polygon fill="#2F2D2C" points="68.5,159 69.2,173.6 141.1,173.6 132.4,156.7 	"/>
	<polygon fill="#828181" points="69.2,173.6 74.6,210.3 129,209.7 138.4,173.6 	"/>
	<polygon fill="#676666" points="129,173.6 122.6,209.8 130.4,209.8 141.1,173.6 	"/>
</g>
<g id="vine">
</g>
<g id="leaves">
</g>
</svg>
