<?xml version="1.0" encoding="utf-8"?>
<!-- Generator: Adobe Illustrator 18.0.0, SVG Export Plug-In . SVG Version: 6.00 Build 0)  -->
<!DOCTYPE svg PUBLIC "-//W3C//DTD SVG 1.1//EN" "http://www.w3.org/Graphics/SVG/1.1/DTD/svg11.dtd">
<svg version="1.1" id="Layer_1" xmlns="http://www.w3.org/2000/svg" xmlns:xlink="http://www.w3.org/1999/xlink" x="0px" y="0px"
	 viewBox="0 0 216 216" enable-background="new 0 0 216 216" xml:space="preserve">
<path fill="#F2D350" d="M118.3,51.1c0,0,49.1,26.1,46.7,52.2c-0.9,4,25.5,81.8-14.2,83.2c-39.6,1.4-78.3,13.7-84.5,3.8
	c-6.1-9.9-24.5-36.3-20.3-78.3c4.2-42,38.2-59.9,37.3-60.9c-0.9-0.9,11.8-7.6-13.2-23.6c-25-16,9.9-6.6,13.7-4.2
	c3.8,2.4,19.9,10.4,25.3-0.5c5.4-10.9,12-11.2,19.1-4.4c7.1,6.8,13.2,7.7,6.6,12.5C128.2,35.5,107.9,38.4,118.3,51.1z"/>
<path fill="#E85025" d="M120.7,42.6c-4.2-1.3-39.6-3.3-40.1-1.9s-4.4,4.6,0,6.1c4.4,1.5,32.8,2.8,36.2,2.1c2.1-0.4,3.1-2.6,3.5-4.3
	C120.6,43.5,120.7,42.6,120.7,42.6z"/>
<polygon fill="#E85025" points="133.4,40.3 120.3,44.6 119.3,46.9 133.4,46.9 "/>
<rect x="63.1" y="110.6" fill="none" width="95.3" height="42.5"/>
<text transform="matrix(1 0 0 1 63.0864 136.2383)" font-family="'MyriadPro-Regular'" font-size="36.1462">SAND</text>
</svg>
