<?xml version="1.0" encoding="utf-8"?>
<!-- Generator: Adobe Illustrator 18.0.0, SVG Export Plug-In . SVG Version: 6.00 Build 0)  -->
<!DOCTYPE svg PUBLIC "-//W3C//DTD SVG 1.1//EN" "http://www.w3.org/Graphics/SVG/1.1/DTD/svg11.dtd">
<svg version="1.1" xmlns="http://www.w3.org/2000/svg" xmlns:xlink="http://www.w3.org/1999/xlink" x="0px" y="0px"
	 viewBox="0 0 216 216" enable-background="new 0 0 216 216" xml:space="preserve">
<g id="Layer_3">
</g>
<g id="Layer_2">
	<path fill="#A4C05B" d="M108.9,123.5c0,0-7.5-16.5-31-8c0,0-10.7,7-17.5,1.7c0,0,4.7,14.4,8.5,18c0,0,13.5,18.9,40,8.2V123.5z"/>
	<polygon fill="#95AC49" points="106.3,94.9 104.4,210.5 109.2,210.5 111.9,84.4 	"/>
	<path fill="#F5CE75" d="M70.5,28.6c0,0,24.2-5.4,28.8,14.9c4.6,20.3-11,2.5-11,2.5S70.7,40.3,70.5,28.6z"/>
	<path fill="#F5CE75" d="M84.9,52.6c0,0-16.3,5.5-19.1,13.1c-2.8,7.5,25.5,0,25.5,0l10.6-4.9l-5.7-9.2L84.9,52.6z"/>
	<path fill="#F5CE75" d="M92.3,69.7c0,0-6.5,23.5-2.7,24.7s15.4-15.5,15.4-15.5l1.2-13.3H97L92.3,69.7z"/>
	<path fill="#F5CE75" d="M112.4,78.9c0,0,9,15.9,14.3,16.5c5.3,0.6-4-29.8-4-29.8l-11.9,2.7L112.4,78.9z"/>
	<path fill="#F5CE75" d="M145.4,58.4c0,0,5.9,7.9,4.4,12.1s-19.3,1.9-19.3,1.9l-5.8-8.2l5.8-9L145.4,58.4z"/>
	<path fill="#F5CE75" d="M132.9,38.9c0,0,21.9-5.6,24.8,0s-20.1,16.4-20.1,16.4h-11l2.3-12.9L132.9,38.9z"/>
	<path fill="#F5CE75" d="M121.8,21.8c0,0,8.2-14.3,12.6-11.6c4.4,2.7-1.2,21-1.2,21l-8.9,8.2l-8-3.8L121.8,21.8z"/>
	<path fill="#F5CE75" d="M96.5,25.2c0,0-4.3-18.9,0.6-18.4c4.9,0.4,14.5,15.1,14.5,15.1l1,15.5l-10,2L96.5,25.2z"/>
	<path fill="#F0BF65" d="M108,35.2c0,0,3.6-25.4,9.9-25.6c6.4-0.3,3.5,27.5,3.5,27.5S115.9,35.7,108,35.2z"/>
	<path fill="#F0BF65" d="M122.1,39.6c0,0,20.8-19.1,23-13.5S127.8,50,127.8,50L122.1,39.6z"/>
	<path fill="#F0BF65" d="M130.3,50c0,0,21.8,0.8,23.6,7.1c1.8,6.4-24.6,1.9-24.6,1.9L130.3,50z"/>
	<path fill="#F0BF65" d="M127,63.2c0,0,12.9,11.8,10.1,17.4c-2.8,5.6-18.8-11-18.8-11L127,63.2z"/>
	<path fill="#F0BF65" d="M102.1,67.2c0,0-1.1,25.4,4.2,27.1c5.3,1.8,10.1-24.2,10.1-24.2L102.1,67.2z"/>
	<path fill="#F0BF65" d="M95.1,56.9c0,0-14.5,9.2-14.5,17.8s21.5-7.5,21.5-7.5L95.1,56.9z"/>
	<path fill="#F0BF65" d="M96.9,43.7c0,0-21.7-5-26,2.4c-4.3,7.4,23.7,7.7,23.7,7.7L96.9,43.7z"/>
	<path fill="#F0BF65" d="M106.3,35.8c0,0-17-22.6-19.6-17c-2.5,5.6,10.2,25,10.2,25L106.3,35.8z"/>
	<circle fill="#735230" cx="112.5" cy="52.6" r="17.9"/>
	<path fill="#7D5E3D" d="M123.6,43.2c0,0-19.1-16-25.4,10.7C98.1,53.9,105.8,34.6,123.6,43.2z"/>
	<path fill="#97AC3F" d="M109.2,114.9c0,0,6.3-13.9,26.1-6.7c0,0,9,5.9,14.7,1.4c0,0-4,12.2-7.2,15.1c0,0-11.4,15.9-33.7,6.9V114.9z
		"/>
</g>
</svg>
