<?xml version="1.0" encoding="utf-8"?>
<!-- Generator: Adobe Illustrator 18.0.0, SVG Export Plug-In . SVG Version: 6.00 Build 0)  -->
<!DOCTYPE svg PUBLIC "-//W3C//DTD SVG 1.1//EN" "http://www.w3.org/Graphics/SVG/1.1/DTD/svg11.dtd">
<svg version="1.1" xmlns="http://www.w3.org/2000/svg" xmlns:xlink="http://www.w3.org/1999/xlink" x="0px" y="0px"
	 viewBox="0 0 216 216" enable-background="new 0 0 216 216" xml:space="preserve">
<g id="Layer_3">
	<polygon fill="#B18B5A" points="126,38.8 129.3,34.2 139.3,34.2 142.4,38.8 142.4,126 126,126 	"/>
	<polygon fill="#B18B5A" points="104.2,38.8 107.4,34.2 117.4,34.2 120.5,38.8 120.5,126 104.2,126 	"/>
	<polygon fill="#B18B5A" points="82.5,38.8 85.8,34.2 95.8,34.2 98.8,38.8 98.8,126 82.5,126 	"/>
	<polygon fill="#B18B5A" points="61,38.8 64.3,34.2 74.2,34.2 77.3,38.8 77.3,126 61,126 	"/>
	<polygon fill="#B18B5A" points="45.3,44.8 54.5,36.1 58.9,38.3 58.9,126 43,150.9 43,51.7 	"/>
	<polygon fill="#B18B5A" points="34.3,53.9 41.2,58.1 41.2,156.9 29.4,180.5 23.1,63.2 	"/>
	<polygon fill="#B18B5A" points="175.2,54 175.2,63.2 175.2,170.9 162,148.6 162,58.1 165,46.9 	"/>
	<polygon fill="#B18B5A" points="159.5,143.6 159.5,51.7 157.9,44.8 149.1,36.1 146,44.8 146,126 	"/>
	<polygon fill="#B18B5A" points="177.1,170.9 177.1,69 183,58.1 202.3,71.4 202.3,213.5 	"/>
	<polygon fill="#8F6F4C" points="13.6,212.5 54.9,126 146,126 202.3,213.5 	"/>
	<polygon fill="#CEA164" points="17.7,62.2 13.6,71.1 13.6,212.5 36.9,212.5 36.9,70.4 32.8,62.2 	"/>
	<polygon fill="#CEA164" points="51.3,62.2 47.2,71.1 47.2,212.5 70.5,212.5 70.5,70.4 66.4,62.2 	"/>
	<polygon fill="#CEA164" points="84.9,62.2 80.8,71.1 80.8,212.5 104.2,212.5 104.2,70.4 100,62.2 	"/>
	<polygon fill="#CEA164" points="118.5,62.2 114.4,71.1 114.4,212.5 137.7,212.5 137.7,70.4 133.6,62.2 	"/>
	<polygon fill="#CEA164" points="152,62.2 147.9,71.1 147.9,212.5 171.2,212.5 171.2,70.4 167.1,62.2 	"/>
	<polygon fill="#CEA164" points="183.1,63.2 178.9,72.1 178.9,213.5 202.3,213.5 202.3,71.4 198.2,63.2 	"/>
</g>
<g id="Layer_2">
</g>
</svg>
