<?xml version="1.0" encoding="utf-8"?>
<!-- Generator: Adobe Illustrator 18.0.0, SVG Export Plug-In . SVG Version: 6.00 Build 0)  -->
<!DOCTYPE svg PUBLIC "-//W3C//DTD SVG 1.1//EN" "http://www.w3.org/Graphics/SVG/1.1/DTD/svg11.dtd">
<svg version="1.1" xmlns="http://www.w3.org/2000/svg" xmlns:xlink="http://www.w3.org/1999/xlink" x="0px" y="0px"
	 viewBox="0 0 360 360" enable-background="new 0 0 360 360" xml:space="preserve">
<g id="Layer_3">
	<polygon fill="#B18B5A" points="202.7,162.5 206.2,157.5 217.1,157.5 220.4,162.5 220.4,257.2 202.7,257.2 	"/>
	<polygon fill="#B18B5A" points="178.9,162.5 182.5,157.5 193.3,157.5 196.6,162.5 196.6,257.2 178.9,257.2 	"/>
	<polygon fill="#B18B5A" points="155.5,162.5 159,157.5 169.8,157.5 173.2,162.5 173.2,257.2 155.5,257.2 	"/>
	<polygon fill="#B18B5A" points="132.1,162.5 135.6,157.5 146.5,157.5 149.8,162.5 149.8,257.2 132.1,257.2 	"/>
	<polygon fill="#B18B5A" points="115,169.1 125,159.6 129.7,162 129.7,257.2 112.5,284.2 112.5,176.5 	"/>
	<polygon fill="#B18B5A" points="103.1,178.9 110.6,183.5 110.6,290.7 97.8,316.4 90.9,189 	"/>
	<polygon fill="#B18B5A" points="256.1,179 256.1,189 256.1,306 241.7,281.7 241.7,183.5 244.9,171.3 	"/>
	<polygon fill="#B18B5A" points="239,276.3 239,176.5 237.2,169.1 227.8,159.6 224.3,169.1 224.3,257.2 	"/>
	<polygon fill="#B18B5A" points="258.1,306 258.1,195.3 264.6,183.5 285.4,198 285.4,352.2 	"/>
	<polygon fill="#8F6F4C" points="80.6,351.1 125.5,257.2 224.3,257.2 285.4,352.2 	"/>
	<polygon fill="#CEA164" points="85,187.9 80.6,197.6 80.6,351.1 105.9,351.1 105.9,196.8 101.4,187.9 	"/>
	<polygon fill="#CEA164" points="121.5,187.9 117.1,197.6 117.1,351.1 142.4,351.1 142.4,196.8 137.9,187.9 	"/>
	<polygon fill="#CEA164" points="158.1,187.9 153.6,197.6 153.6,351.1 178.9,351.1 178.9,196.8 174.5,187.9 	"/>
	<polygon fill="#CEA164" points="194.5,187.9 190,197.6 190,351.1 215.3,351.1 215.3,196.8 210.9,187.9 	"/>
	<polygon fill="#CEA164" points="230.8,187.9 226.3,197.6 226.3,351.1 251.7,351.1 251.7,196.8 247.2,187.9 	"/>
	<polygon fill="#CEA164" points="264.6,189 260.1,198.7 260.1,352.2 285.4,352.2 285.4,198 281,189 	"/>
</g>
<g id="Layer_2">
	<path fill="#A4C05B" d="M189.6,165.6c0,0-10.1-22.3-41.9-10.8c0,0-14.5,9.5-23.6,2.3c0,0,6.4,19.5,11.5,24.3
		c0,0,18.3,25.6,54.1,11.1V165.6z"/>
	<polygon fill="#95AC49" points="186.1,126.9 183.6,283.1 190,283.1 193.7,112.6 	"/>
	<path fill="#F5CE75" d="M137.7,37.2c0,0,32.7-7.3,38.9,20.1c6.2,27.4-14.9,3.4-14.9,3.4S138.1,53.1,137.7,37.2z"/>
	<path fill="#F5CE75" d="M157.2,69.7c0,0-22,7.5-25.8,17.7c-3.8,10.2,34.4,0,34.4,0l14.4-6.6l-7.6-12.5L157.2,69.7z"/>
	<path fill="#F5CE75" d="M167.2,92.8c0,0-8.7,31.7-3.6,33.4c5.1,1.7,20.9-20.9,20.9-20.9l1.6-17.9h-12.6L167.2,92.8z"/>
	<path fill="#F5CE75" d="M194.4,105.3c0,0,12.2,21.4,19.3,22.3c7.1,0.9-5.4-40.2-5.4-40.2l-16,3.7L194.4,105.3z"/>
	<path fill="#F5CE75" d="M238.9,77.6c0,0,8,10.7,5.9,16.3c-2.1,5.7-26.1,2.6-26.1,2.6l-7.9-11l7.9-12.1L238.9,77.6z"/>
	<path fill="#F5CE75" d="M222.1,51.2c0,0,29.6-7.6,33.5,0s-27.2,22.2-27.2,22.2h-14.9l3.2-17.4L222.1,51.2z"/>
	<path fill="#F5CE75" d="M207.1,28.1c0,0,11.1-19.3,17-15.7s-1.6,28.3-1.6,28.3l-12,11l-10.8-5.1L207.1,28.1z"/>
	<path fill="#F5CE75" d="M172.9,32.7c0,0-5.8-25.5,0.8-24.9s19.5,20.4,19.5,20.4l1.3,20.9l-13.4,2.7L172.9,32.7z"/>
	<path fill="#F0BF65" d="M188.5,46.2c0,0,4.8-34.3,13.4-34.6s4.8,37.1,4.8,37.1S199.1,46.8,188.5,46.2z"/>
	<path fill="#F0BF65" d="M207.5,52.2c0,0,28-25.8,31.1-18.2s-23.5,32.3-23.5,32.3L207.5,52.2z"/>
	<path fill="#F0BF65" d="M218.5,66.2c0,0,29.5,1,31.9,9.6c2.4,8.6-33.3,2.6-33.3,2.6L218.5,66.2z"/>
	<path fill="#F0BF65" d="M214.1,84c0,0,17.4,16,13.6,23.5c-3.8,7.6-25.4-14.8-25.4-14.8L214.1,84z"/>
	<path fill="#F0BF65" d="M180.4,89.4c0,0-1.5,34.3,5.7,36.7c7.2,2.4,13.6-32.7,13.6-32.7L180.4,89.4z"/>
	<path fill="#F0BF65" d="M171,75.5c0,0-19.6,12.4-19.6,24.1s29-10.2,29-10.2L171,75.5z"/>
	<path fill="#F0BF65" d="M173.5,57.7c0,0-29.3-6.8-35.1,3.3c-5.8,10.1,32,10.4,32,10.4L173.5,57.7z"/>
	<path fill="#F0BF65" d="M186.1,47c0,0-23-30.5-26.5-23c-3.4,7.6,13.8,33.7,13.8,33.7L186.1,47z"/>
	<circle fill="#735230" cx="194.5" cy="69.7" r="24.2"/>
	<path fill="#7D5E3D" d="M209.5,57c0,0-25.8-21.7-34.4,14.4C175.1,71.4,185.4,45.3,209.5,57z"/>
	<path fill="#97AC3F" d="M190,153.9c0,0,8.5-18.8,35.3-9.1c0,0,12.2,8,19.9,1.9c0,0-5.4,16.4-9.7,20.4c0,0-15.4,21.5-45.5,9.4V153.9
		z"/>
</g>
</svg>
