<?xml version="1.0" encoding="utf-8"?>
<!-- Generator: Adobe Illustrator 18.0.0, SVG Export Plug-In . SVG Version: 6.00 Build 0)  -->
<!DOCTYPE svg PUBLIC "-//W3C//DTD SVG 1.1//EN" "http://www.w3.org/Graphics/SVG/1.1/DTD/svg11.dtd">
<svg version="1.1" xmlns="http://www.w3.org/2000/svg" xmlns:xlink="http://www.w3.org/1999/xlink" x="0px" y="0px"
	 viewBox="0 0 223.3 216" enable-background="new 0 0 223.3 216" xml:space="preserve">
<g id="Layer_2">
	<polygon fill="#24B199" points="37.9,79.5 37.9,172.6 129.3,172.6 122.3,79.5 	"/>
	<path fill="#128F79" d="M50.9,79.5c0,0,5.2-47.9,32.6-47c27.4,0.9,30.9,47,30.9,47h-11c0,0,2.6-33.9-18.3-35.1
		C64,43.1,60.5,79.5,60.5,79.5H50.9z"/>
	<path fill="#128F79" d="M37.9,95.1c0,0-34,8.7-34.8,37.4s34.8,48.7,34.8,44.4c0-4.4,0-13.1,0-13.1s-23.5-15.9-22.6-27.5
		c0.9-11.6,8.7-27.3,22.6-30.8C51.8,102.1,37.9,95.1,37.9,95.1z"/>
	<polygon fill="#128F79" points="124.3,105.5 151.1,105.5 159.8,95.1 159.8,79.5 165,79.5 190.2,109.9 174.6,109.9 129,169.3 
		125.6,123.8 144.1,112.5 124.7,111.7 	"/>
	<polygon fill="#1EA58D" points="37.9,172.6 35.9,190.7 130,191.3 129.3,172.6 	"/>
	<path fill="#6AC4CD" d="M37.9,130.9c0,0,0,13.5,10.3,14.1s16.2-14.1,16.2-14.1s12.8,18.4,18.3,14.1s9.9-14.1,9.9-14.1
		s6,9.7,11.9,10.8s6,1.1,6,1.1l15.2-19l4.4,67.4H35.9L37.9,130.9z"/>
</g>
<g id="Layer_3">
	<path fill="#6AC4CD" d="M178.3,76.5c0,0-5-16.7,4.8-23.8c11.1-7.9,11.1,5.2,11.1,5.2S186.7,73.8,178.3,76.5z"/>
	<path fill="#6AC4CD" d="M185.6,83.6c0,0,6.8-16.1,18.9-15.2c13.6,1,5.2,11.1,5.2,11.1S193.8,87,185.6,83.6z"/>
</g>
</svg>
