<?xml version="1.0" encoding="utf-8"?>
<!-- Generator: Adobe Illustrator 18.0.0, SVG Export Plug-In . SVG Version: 6.00 Build 0)  -->
<!DOCTYPE svg PUBLIC "-//W3C//DTD SVG 1.1//EN" "http://www.w3.org/Graphics/SVG/1.1/DTD/svg11.dtd">
<svg version="1.1" xmlns="http://www.w3.org/2000/svg" xmlns:xlink="http://www.w3.org/1999/xlink" x="0px" y="0px"
	 viewBox="0 0 223.3 216" enable-background="new 0 0 223.3 216" xml:space="preserve">
<g id="Layer_2">
	<polygon fill="#24B199" points="39,76.6 39,172.6 133.2,172.6 126,76.6 	"/>
	<path fill="#128F79" d="M52.4,76.6c0,0,5.4-49.4,33.7-48.5s31.9,48.5,31.9,48.5h-11.4c0,0,2.7-35-18.9-36.2
		c-21.8-1.3-25.4,36.2-25.4,36.2H52.4z"/>
	<path fill="#128F79" d="M39,92.8c0,0-35,9-35.9,38.6S39,181.6,39,177.1c0-4.5,0-13.5,0-13.5s-24.2-16.4-23.3-28.3
		c0.9-12,9-28.1,23.3-31.7C53.3,99.9,39,92.8,39,92.8z"/>
	<polygon fill="#128F79" points="128,103.4 155.6,103.4 164.6,92.8 164.6,76.6 170,76.6 196,108 179.9,108 132.9,169.2 129.4,122.4 
		148.5,110.7 128.5,109.8 	"/>
	<polygon fill="#1EA58D" points="39,171 36.9,189.7 134,190.2 133.2,171 	"/>
	<path fill="#6AC4CD" d="M39,103.5c0,0,4.4,18.5,13.5,15.1c9.1-3.4,11.3-18.4,11.3-18.4s4.5,15.6,10.6,16.2
		c6.1,0.6,15.1-19.5,15.1-19.5s3.4,24,9.5,19.5c6.1-4.5,16.8-23.7,16.8-23.7s7.8,23.4,12.8,17.1l5.5,82.1H36.9L39,103.5z"/>
	<path fill="#6AC4CD" d="M183,71.1c0,0-7.4-15.8,1.3-24.2c9.8-9.5,11.7,3.5,11.7,3.5S191,67.2,183,71.1z"/>
	<path fill="#6AC4CD" d="M190.2,81.4c0,0,1.8-17.4,13.6-20.1c13.3-3,8.2,9.1,8.2,9.1S199,82.2,190.2,81.4z"/>
	<path fill="#6AC4CD" d="M192.9,89.6c0,0,12.2-12.5,23.1-7.3c12.3,5.9,0.8,12.2,0.8,12.2S199.3,95.7,192.9,89.6z"/>
</g>
<g id="Layer_3">
</g>
</svg>
